G75*
%MOIN*%
%OFA0B0*%
%FSLAX25Y25*%
%IPPOS*%
%LPD*%
%AMOC8*
5,1,8,0,0,1.08239X$1,22.5*
%
%ADD10C,0.00039*%
%ADD11C,0.06000*%
%ADD12R,0.05550X0.05550*%
%ADD13R,0.05550X0.05550*%
%ADD14C,0.01780*%
%ADD15C,0.05550*%
%ADD16C,0.08077*%
%ADD17OC8,0.05124*%
D10*
X0196079Y0051394D02*
X0196079Y0055331D01*
X0207890Y0055331D02*
X0207890Y0051394D01*
X0207890Y0080921D02*
X0207890Y0084858D01*
X0196079Y0084858D02*
X0196079Y0080921D01*
X0196079Y0110449D02*
X0196079Y0114386D01*
X0207890Y0114386D02*
X0207890Y0110449D01*
X0207890Y0139976D02*
X0207890Y0143913D01*
X0196079Y0143913D02*
X0196079Y0139976D01*
X0196079Y0168520D02*
X0196079Y0172457D01*
X0207890Y0172457D02*
X0207890Y0168520D01*
X0207890Y0199031D02*
X0207890Y0202969D01*
X0196079Y0202969D02*
X0196079Y0199031D01*
X0302378Y0052378D02*
X0298200Y0049969D01*
X0293964Y0047663D01*
X0289673Y0045461D01*
X0285329Y0043366D01*
X0280935Y0041377D01*
X0276494Y0039497D01*
X0272009Y0037726D01*
X0267481Y0036065D01*
X0262913Y0034516D01*
X0258310Y0033080D01*
X0253672Y0031756D01*
X0249003Y0030547D01*
X0244306Y0029452D01*
X0239584Y0028473D01*
X0234839Y0027610D01*
X0230075Y0026863D01*
X0225293Y0026233D01*
X0220498Y0025721D01*
X0215691Y0025326D01*
X0210876Y0025049D01*
X0206056Y0024890D01*
X0201233Y0024849D01*
X0196411Y0024927D01*
X0191592Y0025123D01*
X0186780Y0025436D01*
X0181976Y0025868D01*
X0177185Y0026417D01*
X0172408Y0027083D01*
X0167650Y0027866D01*
X0162912Y0028765D01*
X0158197Y0029781D01*
X0153508Y0030911D01*
X0148849Y0032156D01*
X0144222Y0033515D01*
X0139629Y0034986D01*
X0135074Y0036570D01*
X0130559Y0038265D01*
X0126086Y0040070D01*
X0121660Y0041985D01*
X0117281Y0044007D01*
X0112954Y0046135D01*
X0108680Y0048369D01*
X0104462Y0050707D01*
X0100302Y0053148D01*
X0096203Y0055690D01*
X0092168Y0058332D01*
X0088199Y0061071D01*
X0084299Y0063908D01*
X0080469Y0066838D01*
X0076712Y0069862D01*
X0073030Y0072977D01*
X0069425Y0076181D01*
X0065900Y0079473D01*
X0062457Y0082850D01*
X0059098Y0086310D01*
X0055824Y0089852D01*
X0052638Y0093472D01*
X0049542Y0097170D01*
X0046537Y0100942D01*
X0043626Y0104787D01*
X0040810Y0108703D01*
X0038090Y0112685D01*
X0035469Y0116734D01*
X0032948Y0120845D01*
X0030529Y0125017D01*
X0028212Y0129247D01*
X0026000Y0133532D01*
X0023893Y0137871D01*
X0021893Y0142259D01*
X0020002Y0146696D01*
X0018219Y0151177D01*
X0016548Y0155701D01*
X0014987Y0160264D01*
X0013538Y0164864D01*
X0012203Y0169498D01*
X0010982Y0174164D01*
X0009875Y0178858D01*
X0008884Y0183578D01*
X0008009Y0188321D01*
X0007250Y0193083D01*
X0006608Y0197863D01*
X0006083Y0202657D01*
X0005676Y0207463D01*
X0005387Y0212277D01*
X0005216Y0217097D01*
X0005163Y0221919D01*
X0005228Y0226742D01*
X0005412Y0231561D01*
X0005713Y0236374D01*
X0006132Y0241179D01*
X0006669Y0245971D01*
X0007323Y0250750D01*
X0008094Y0255510D01*
X0008982Y0260251D01*
X0009985Y0264968D01*
X0011103Y0269659D01*
X0012336Y0274322D01*
X0013683Y0278953D01*
X0015144Y0283549D01*
X0016716Y0288108D01*
X0018399Y0292628D01*
X0020193Y0297105D01*
X0022096Y0301536D01*
X0024107Y0305920D01*
X0026224Y0310253D01*
X0028448Y0314533D01*
X0030775Y0318757D01*
X0033205Y0322922D01*
X0035737Y0327027D01*
X0038368Y0331069D01*
X0041098Y0335045D01*
X0043924Y0338953D01*
X0046845Y0342790D01*
X0049859Y0346555D01*
X0052965Y0350245D01*
X0056160Y0353857D01*
X0059442Y0357391D01*
X0062811Y0360842D01*
X0066262Y0364211D01*
X0069796Y0367493D01*
X0073408Y0370688D01*
X0077098Y0373794D01*
X0080863Y0376808D01*
X0084700Y0379729D01*
X0088608Y0382555D01*
X0092584Y0385285D01*
X0096626Y0387916D01*
X0100731Y0390448D01*
X0104896Y0392878D01*
X0109120Y0395205D01*
X0113400Y0397429D01*
X0117733Y0399546D01*
X0122117Y0401557D01*
X0126548Y0403460D01*
X0131025Y0405254D01*
X0135545Y0406937D01*
X0140104Y0408509D01*
X0144700Y0409970D01*
X0149331Y0411317D01*
X0153994Y0412550D01*
X0158685Y0413668D01*
X0163402Y0414671D01*
X0168143Y0415559D01*
X0172903Y0416330D01*
X0177682Y0416984D01*
X0182474Y0417521D01*
X0187279Y0417940D01*
X0192092Y0418241D01*
X0196911Y0418425D01*
X0201734Y0418490D01*
X0206556Y0418437D01*
X0211376Y0418266D01*
X0216190Y0417977D01*
X0220996Y0417570D01*
X0225790Y0417045D01*
X0230570Y0416403D01*
X0235332Y0415644D01*
X0240075Y0414769D01*
X0244795Y0413778D01*
X0249489Y0412671D01*
X0254155Y0411450D01*
X0258789Y0410115D01*
X0263389Y0408666D01*
X0267952Y0407105D01*
X0272476Y0405434D01*
X0276957Y0403651D01*
X0281394Y0401760D01*
X0285782Y0399760D01*
X0290121Y0397653D01*
X0294406Y0395441D01*
X0298636Y0393124D01*
X0302808Y0390705D01*
X0306919Y0388184D01*
X0310968Y0385563D01*
X0314950Y0382843D01*
X0318866Y0380027D01*
X0322711Y0377116D01*
X0326483Y0374111D01*
X0330181Y0371015D01*
X0333801Y0367829D01*
X0337343Y0364555D01*
X0340803Y0361196D01*
X0344180Y0357753D01*
X0347472Y0354228D01*
X0350676Y0350623D01*
X0353791Y0346941D01*
X0356815Y0343184D01*
X0359745Y0339354D01*
X0362582Y0335454D01*
X0365321Y0331485D01*
X0367963Y0327450D01*
X0370505Y0323351D01*
X0372946Y0319191D01*
X0375284Y0314973D01*
X0377518Y0310699D01*
X0379646Y0306372D01*
X0381668Y0301993D01*
X0383583Y0297567D01*
X0385388Y0293094D01*
X0387083Y0288579D01*
X0388667Y0284024D01*
X0390138Y0279431D01*
X0391497Y0274804D01*
X0392742Y0270145D01*
X0393872Y0265456D01*
X0394888Y0260741D01*
X0395787Y0256003D01*
X0396570Y0251245D01*
X0397236Y0246468D01*
X0397785Y0241677D01*
X0398217Y0236873D01*
X0398530Y0232061D01*
X0398726Y0227242D01*
X0398804Y0222420D01*
X0398763Y0217597D01*
X0398604Y0212777D01*
X0398327Y0207962D01*
X0397932Y0203155D01*
X0397420Y0198360D01*
X0396790Y0193578D01*
X0396043Y0188814D01*
X0395180Y0184069D01*
X0394201Y0179347D01*
X0393106Y0174650D01*
X0391897Y0169981D01*
X0390573Y0165343D01*
X0389137Y0160740D01*
X0387588Y0156172D01*
X0385927Y0151644D01*
X0384156Y0147159D01*
X0382276Y0142718D01*
X0380287Y0138324D01*
X0378192Y0133980D01*
X0375990Y0129689D01*
X0373684Y0125453D01*
X0371275Y0121275D01*
X0371276Y0121276D02*
X0371104Y0120843D01*
X0370942Y0120407D01*
X0370791Y0119967D01*
X0370651Y0119523D01*
X0370521Y0119076D01*
X0370403Y0118627D01*
X0370295Y0118174D01*
X0370198Y0117719D01*
X0370113Y0117261D01*
X0370038Y0116802D01*
X0369975Y0116341D01*
X0369923Y0115879D01*
X0369882Y0115415D01*
X0369852Y0114951D01*
X0369833Y0114486D01*
X0369826Y0114021D01*
X0369830Y0113556D01*
X0369845Y0113091D01*
X0369872Y0112626D01*
X0369910Y0112162D01*
X0369959Y0111700D01*
X0370019Y0111238D01*
X0370090Y0110779D01*
X0370173Y0110321D01*
X0370266Y0109865D01*
X0370371Y0109411D01*
X0370486Y0108961D01*
X0370613Y0108513D01*
X0370750Y0108068D01*
X0370898Y0107627D01*
X0371056Y0107190D01*
X0371225Y0106756D01*
X0371405Y0106327D01*
X0371594Y0105902D01*
X0371795Y0105482D01*
X0372005Y0105067D01*
X0372225Y0104657D01*
X0372455Y0104253D01*
X0372695Y0103854D01*
X0372944Y0103461D01*
X0373203Y0103075D01*
X0373471Y0102694D01*
X0373748Y0102321D01*
X0374034Y0101954D01*
X0374329Y0101594D01*
X0374633Y0101241D01*
X0374945Y0100896D01*
X0375265Y0100559D01*
X0375594Y0100229D01*
X0375930Y0099907D01*
X0376274Y0099594D01*
X0376625Y0099289D01*
X0376984Y0098993D01*
X0377350Y0098705D01*
X0377723Y0098427D01*
X0378102Y0098157D01*
X0378488Y0097897D01*
X0378879Y0097646D01*
X0379277Y0097405D01*
X0379681Y0097174D01*
X0380090Y0096952D01*
X0380504Y0096740D01*
X0380924Y0096538D01*
X0381348Y0096347D01*
X0381776Y0096166D01*
X0382209Y0095995D01*
X0382646Y0095835D01*
X0383087Y0095686D01*
X0383087Y0095684D02*
X0383532Y0095615D01*
X0383975Y0095535D01*
X0384417Y0095445D01*
X0384856Y0095343D01*
X0385293Y0095231D01*
X0385726Y0095109D01*
X0386157Y0094976D01*
X0386584Y0094832D01*
X0387008Y0094678D01*
X0387427Y0094514D01*
X0387843Y0094340D01*
X0388254Y0094156D01*
X0388661Y0093962D01*
X0389063Y0093758D01*
X0389460Y0093544D01*
X0389851Y0093321D01*
X0390237Y0093088D01*
X0390617Y0092846D01*
X0390991Y0092595D01*
X0391359Y0092335D01*
X0391721Y0092066D01*
X0392076Y0091788D01*
X0392424Y0091502D01*
X0392765Y0091207D01*
X0393099Y0090904D01*
X0393425Y0090594D01*
X0393744Y0090275D01*
X0394054Y0089949D01*
X0394357Y0089615D01*
X0394652Y0089274D01*
X0394938Y0088926D01*
X0395216Y0088571D01*
X0395485Y0088209D01*
X0395745Y0087841D01*
X0395996Y0087467D01*
X0396238Y0087087D01*
X0396471Y0086701D01*
X0396694Y0086310D01*
X0396908Y0085913D01*
X0397112Y0085511D01*
X0397306Y0085104D01*
X0397490Y0084693D01*
X0397664Y0084277D01*
X0397828Y0083858D01*
X0397982Y0083434D01*
X0398126Y0083007D01*
X0398259Y0082576D01*
X0398381Y0082143D01*
X0398493Y0081706D01*
X0398595Y0081267D01*
X0398685Y0080825D01*
X0398765Y0080382D01*
X0398834Y0079937D01*
X0398835Y0079937D02*
X0398835Y0070094D01*
X0398822Y0069000D01*
X0398782Y0067907D01*
X0398716Y0066814D01*
X0398624Y0065724D01*
X0398505Y0064637D01*
X0398360Y0063552D01*
X0398189Y0062471D01*
X0397992Y0061395D01*
X0397768Y0060324D01*
X0397519Y0059259D01*
X0397245Y0058200D01*
X0396945Y0057148D01*
X0396619Y0056103D01*
X0396268Y0055067D01*
X0395893Y0054039D01*
X0395492Y0053021D01*
X0395068Y0052012D01*
X0394619Y0051015D01*
X0394146Y0050028D01*
X0393649Y0049053D01*
X0393129Y0048091D01*
X0392586Y0047141D01*
X0392020Y0046205D01*
X0391431Y0045282D01*
X0390820Y0044374D01*
X0390188Y0043481D01*
X0389534Y0042604D01*
X0388860Y0041743D01*
X0388164Y0040898D01*
X0387449Y0040070D01*
X0386713Y0039260D01*
X0385958Y0038468D01*
X0385185Y0037695D01*
X0384393Y0036940D01*
X0383583Y0036204D01*
X0382755Y0035489D01*
X0381910Y0034793D01*
X0381049Y0034119D01*
X0380172Y0033465D01*
X0379279Y0032833D01*
X0378371Y0032222D01*
X0377448Y0031633D01*
X0376512Y0031067D01*
X0375562Y0030524D01*
X0374600Y0030004D01*
X0373625Y0029507D01*
X0372638Y0029034D01*
X0371641Y0028585D01*
X0370632Y0028161D01*
X0369614Y0027760D01*
X0368586Y0027385D01*
X0367550Y0027034D01*
X0366505Y0026708D01*
X0365453Y0026408D01*
X0364394Y0026134D01*
X0363329Y0025885D01*
X0362258Y0025661D01*
X0361182Y0025464D01*
X0360101Y0025293D01*
X0359016Y0025148D01*
X0357929Y0025029D01*
X0356839Y0024937D01*
X0355746Y0024871D01*
X0354653Y0024831D01*
X0353559Y0024818D01*
X0353559Y0024819D02*
X0343717Y0024819D01*
X0343716Y0024820D02*
X0343271Y0024889D01*
X0342828Y0024969D01*
X0342386Y0025059D01*
X0341947Y0025161D01*
X0341510Y0025273D01*
X0341077Y0025395D01*
X0340646Y0025528D01*
X0340219Y0025672D01*
X0339795Y0025826D01*
X0339376Y0025990D01*
X0338960Y0026164D01*
X0338549Y0026348D01*
X0338142Y0026542D01*
X0337740Y0026746D01*
X0337343Y0026960D01*
X0336952Y0027183D01*
X0336566Y0027416D01*
X0336186Y0027658D01*
X0335812Y0027909D01*
X0335444Y0028169D01*
X0335082Y0028438D01*
X0334727Y0028716D01*
X0334379Y0029002D01*
X0334038Y0029297D01*
X0333704Y0029600D01*
X0333378Y0029910D01*
X0333059Y0030229D01*
X0332749Y0030555D01*
X0332446Y0030889D01*
X0332151Y0031230D01*
X0331865Y0031578D01*
X0331587Y0031933D01*
X0331318Y0032295D01*
X0331058Y0032663D01*
X0330807Y0033037D01*
X0330565Y0033417D01*
X0330332Y0033803D01*
X0330109Y0034194D01*
X0329895Y0034591D01*
X0329691Y0034993D01*
X0329497Y0035400D01*
X0329313Y0035811D01*
X0329139Y0036227D01*
X0328975Y0036646D01*
X0328821Y0037070D01*
X0328677Y0037497D01*
X0328544Y0037928D01*
X0328422Y0038361D01*
X0328310Y0038798D01*
X0328208Y0039237D01*
X0328118Y0039679D01*
X0328038Y0040122D01*
X0327969Y0040567D01*
X0327968Y0040566D02*
X0327819Y0041007D01*
X0327659Y0041444D01*
X0327488Y0041877D01*
X0327307Y0042305D01*
X0327116Y0042729D01*
X0326914Y0043149D01*
X0326702Y0043563D01*
X0326480Y0043972D01*
X0326249Y0044376D01*
X0326008Y0044774D01*
X0325757Y0045165D01*
X0325497Y0045551D01*
X0325227Y0045930D01*
X0324949Y0046303D01*
X0324661Y0046669D01*
X0324365Y0047028D01*
X0324060Y0047379D01*
X0323747Y0047723D01*
X0323425Y0048059D01*
X0323095Y0048388D01*
X0322758Y0048708D01*
X0322413Y0049020D01*
X0322060Y0049324D01*
X0321700Y0049619D01*
X0321333Y0049905D01*
X0320960Y0050182D01*
X0320579Y0050450D01*
X0320193Y0050709D01*
X0319800Y0050958D01*
X0319401Y0051198D01*
X0318997Y0051428D01*
X0318587Y0051648D01*
X0318172Y0051858D01*
X0317752Y0052059D01*
X0317327Y0052248D01*
X0316898Y0052428D01*
X0316464Y0052597D01*
X0316027Y0052755D01*
X0315586Y0052903D01*
X0315141Y0053040D01*
X0314693Y0053167D01*
X0314243Y0053282D01*
X0313789Y0053387D01*
X0313333Y0053480D01*
X0312875Y0053563D01*
X0312416Y0053634D01*
X0311954Y0053694D01*
X0311492Y0053743D01*
X0311028Y0053781D01*
X0310563Y0053808D01*
X0310098Y0053823D01*
X0309633Y0053827D01*
X0309168Y0053820D01*
X0308703Y0053801D01*
X0308239Y0053771D01*
X0307775Y0053730D01*
X0307313Y0053678D01*
X0306852Y0053615D01*
X0306393Y0053540D01*
X0305935Y0053455D01*
X0305480Y0053358D01*
X0305027Y0053250D01*
X0304578Y0053132D01*
X0304131Y0053002D01*
X0303687Y0052862D01*
X0303247Y0052711D01*
X0302811Y0052549D01*
X0302378Y0052377D01*
X0207889Y0055331D02*
X0211941Y0055524D01*
X0215987Y0055816D01*
X0220024Y0056207D01*
X0224050Y0056695D01*
X0228064Y0057282D01*
X0232062Y0057966D01*
X0236042Y0058748D01*
X0240002Y0059626D01*
X0243939Y0060601D01*
X0247852Y0061671D01*
X0251737Y0062836D01*
X0255592Y0064095D01*
X0259416Y0065449D01*
X0263206Y0066894D01*
X0266959Y0068432D01*
X0270674Y0070061D01*
X0274348Y0071780D01*
X0277979Y0073588D01*
X0281564Y0075483D01*
X0285103Y0077466D01*
X0288592Y0079534D01*
X0292030Y0081687D01*
X0295414Y0083923D01*
X0298743Y0086240D01*
X0302014Y0088638D01*
X0305226Y0091115D01*
X0308377Y0093670D01*
X0311464Y0096300D01*
X0314487Y0099005D01*
X0317442Y0101783D01*
X0320329Y0104632D01*
X0323146Y0107551D01*
X0325891Y0110537D01*
X0328562Y0113589D01*
X0331158Y0116706D01*
X0333678Y0119885D01*
X0336119Y0123124D01*
X0338480Y0126422D01*
X0340761Y0129776D01*
X0342959Y0133185D01*
X0345073Y0136646D01*
X0347102Y0140158D01*
X0349045Y0143719D01*
X0350901Y0147325D01*
X0352668Y0150976D01*
X0354346Y0154669D01*
X0355934Y0158402D01*
X0357430Y0162172D01*
X0358833Y0165977D01*
X0360144Y0169816D01*
X0361360Y0173685D01*
X0362482Y0177583D01*
X0363509Y0181507D01*
X0364440Y0185455D01*
X0365274Y0189424D01*
X0366011Y0193413D01*
X0366651Y0197418D01*
X0367193Y0201438D01*
X0367637Y0205470D01*
X0367982Y0209511D01*
X0368229Y0213560D01*
X0368378Y0217613D01*
X0368427Y0221669D01*
X0368378Y0225725D01*
X0368229Y0229778D01*
X0367982Y0233827D01*
X0367637Y0237868D01*
X0367193Y0241900D01*
X0366651Y0245920D01*
X0366011Y0249925D01*
X0365274Y0253914D01*
X0364440Y0257883D01*
X0363509Y0261831D01*
X0362482Y0265755D01*
X0361360Y0269653D01*
X0360144Y0273522D01*
X0358833Y0277361D01*
X0357430Y0281166D01*
X0355934Y0284936D01*
X0354346Y0288669D01*
X0352668Y0292362D01*
X0350901Y0296013D01*
X0349045Y0299619D01*
X0347102Y0303180D01*
X0345073Y0306692D01*
X0342959Y0310153D01*
X0340761Y0313562D01*
X0338480Y0316916D01*
X0336119Y0320214D01*
X0333678Y0323453D01*
X0331158Y0326632D01*
X0328562Y0329749D01*
X0325891Y0332801D01*
X0323146Y0335787D01*
X0320329Y0338706D01*
X0317442Y0341555D01*
X0314487Y0344333D01*
X0311464Y0347038D01*
X0308377Y0349668D01*
X0305226Y0352223D01*
X0302014Y0354700D01*
X0298743Y0357098D01*
X0295414Y0359415D01*
X0292030Y0361651D01*
X0288592Y0363804D01*
X0285103Y0365872D01*
X0281564Y0367855D01*
X0277979Y0369750D01*
X0274348Y0371558D01*
X0270674Y0373277D01*
X0266959Y0374906D01*
X0263206Y0376444D01*
X0259416Y0377889D01*
X0255592Y0379243D01*
X0251737Y0380502D01*
X0247852Y0381667D01*
X0243939Y0382737D01*
X0240002Y0383712D01*
X0236042Y0384590D01*
X0232062Y0385372D01*
X0228064Y0386056D01*
X0224050Y0386643D01*
X0220024Y0387131D01*
X0215987Y0387522D01*
X0211941Y0387814D01*
X0207889Y0388007D01*
X0207890Y0388008D02*
X0207890Y0391945D01*
X0196079Y0391945D02*
X0196079Y0388008D01*
X0196079Y0362417D02*
X0196079Y0358480D01*
X0207890Y0358480D02*
X0207890Y0362417D01*
X0207890Y0332890D02*
X0207890Y0328953D01*
X0196079Y0328953D02*
X0196079Y0332890D01*
X0196079Y0303362D02*
X0196079Y0299425D01*
X0207890Y0299425D02*
X0207890Y0303362D01*
X0207890Y0274819D02*
X0207890Y0270882D01*
X0196079Y0270882D02*
X0196079Y0274819D01*
X0196079Y0244307D02*
X0196079Y0240370D01*
X0207890Y0240370D02*
X0207890Y0244307D01*
X0207890Y0391945D02*
X0212039Y0391750D01*
X0216183Y0391454D01*
X0220318Y0391058D01*
X0224442Y0390560D01*
X0228553Y0389963D01*
X0232649Y0389265D01*
X0236726Y0388467D01*
X0240782Y0387571D01*
X0244815Y0386576D01*
X0248823Y0385482D01*
X0252803Y0384292D01*
X0256753Y0383004D01*
X0260670Y0381621D01*
X0264552Y0380143D01*
X0268397Y0378570D01*
X0272203Y0376904D01*
X0275967Y0375146D01*
X0279686Y0373297D01*
X0283360Y0371357D01*
X0286985Y0369329D01*
X0290560Y0367213D01*
X0294082Y0365010D01*
X0297550Y0362722D01*
X0300960Y0360350D01*
X0304312Y0357896D01*
X0307603Y0355360D01*
X0310831Y0352745D01*
X0313994Y0350053D01*
X0317091Y0347284D01*
X0320119Y0344440D01*
X0323077Y0341523D01*
X0325964Y0338535D01*
X0328776Y0335478D01*
X0331513Y0332353D01*
X0334173Y0329162D01*
X0336754Y0325907D01*
X0339256Y0322590D01*
X0341675Y0319214D01*
X0344012Y0315779D01*
X0346264Y0312288D01*
X0348431Y0308744D01*
X0350510Y0305147D01*
X0352501Y0301501D01*
X0354403Y0297808D01*
X0356214Y0294069D01*
X0357933Y0290287D01*
X0359560Y0286465D01*
X0361093Y0282604D01*
X0362531Y0278707D01*
X0363874Y0274775D01*
X0365121Y0270813D01*
X0366270Y0266821D01*
X0367322Y0262802D01*
X0368276Y0258759D01*
X0369131Y0254693D01*
X0369886Y0250608D01*
X0370542Y0246506D01*
X0371097Y0242389D01*
X0371552Y0238260D01*
X0371906Y0234121D01*
X0372159Y0229974D01*
X0372311Y0225823D01*
X0372362Y0221669D01*
X0372311Y0217515D01*
X0372159Y0213364D01*
X0371906Y0209217D01*
X0371552Y0205078D01*
X0371097Y0200949D01*
X0370542Y0196832D01*
X0369886Y0192730D01*
X0369131Y0188645D01*
X0368276Y0184579D01*
X0367322Y0180536D01*
X0366270Y0176517D01*
X0365121Y0172525D01*
X0363874Y0168563D01*
X0362531Y0164631D01*
X0361093Y0160734D01*
X0359560Y0156873D01*
X0357933Y0153051D01*
X0356214Y0149269D01*
X0354403Y0145530D01*
X0352501Y0141837D01*
X0350510Y0138191D01*
X0348431Y0134594D01*
X0346264Y0131050D01*
X0344012Y0127559D01*
X0341675Y0124124D01*
X0339256Y0120748D01*
X0336754Y0117431D01*
X0334173Y0114176D01*
X0331513Y0110985D01*
X0328776Y0107860D01*
X0325964Y0104803D01*
X0323077Y0101815D01*
X0320119Y0098898D01*
X0317091Y0096054D01*
X0313994Y0093285D01*
X0310831Y0090593D01*
X0307603Y0087978D01*
X0304312Y0085442D01*
X0300960Y0082988D01*
X0297550Y0080616D01*
X0294082Y0078328D01*
X0290560Y0076125D01*
X0286985Y0074009D01*
X0283360Y0071981D01*
X0279686Y0070041D01*
X0275967Y0068192D01*
X0272203Y0066434D01*
X0268397Y0064768D01*
X0264552Y0063195D01*
X0260670Y0061717D01*
X0256753Y0060334D01*
X0252803Y0059046D01*
X0248823Y0057856D01*
X0244815Y0056762D01*
X0240782Y0055767D01*
X0236726Y0054871D01*
X0232649Y0054073D01*
X0228553Y0053375D01*
X0224442Y0052778D01*
X0220318Y0052280D01*
X0216183Y0051884D01*
X0212039Y0051588D01*
X0207890Y0051393D01*
X0207890Y0080921D02*
X0211330Y0081107D01*
X0214766Y0081378D01*
X0218193Y0081733D01*
X0221611Y0082171D01*
X0225017Y0082693D01*
X0228410Y0083298D01*
X0231786Y0083985D01*
X0235145Y0084756D01*
X0238484Y0085608D01*
X0241801Y0086541D01*
X0245094Y0087555D01*
X0248362Y0088650D01*
X0251601Y0089824D01*
X0254811Y0091077D01*
X0257990Y0092408D01*
X0261135Y0093817D01*
X0264244Y0095302D01*
X0267316Y0096863D01*
X0270349Y0098498D01*
X0273342Y0100207D01*
X0276291Y0101989D01*
X0279196Y0103842D01*
X0282055Y0105766D01*
X0284866Y0107759D01*
X0287627Y0109820D01*
X0290338Y0111949D01*
X0292995Y0114142D01*
X0295598Y0116401D01*
X0298144Y0118722D01*
X0300634Y0121105D01*
X0303064Y0123548D01*
X0305434Y0126049D01*
X0307741Y0128608D01*
X0309986Y0131223D01*
X0312166Y0133892D01*
X0314280Y0136613D01*
X0316327Y0139385D01*
X0318305Y0142206D01*
X0320214Y0145075D01*
X0322052Y0147990D01*
X0323818Y0150949D01*
X0325512Y0153950D01*
X0327131Y0156992D01*
X0328676Y0160072D01*
X0330144Y0163189D01*
X0331536Y0166342D01*
X0332851Y0169527D01*
X0334087Y0172743D01*
X0335244Y0175989D01*
X0336322Y0179262D01*
X0337319Y0182561D01*
X0338235Y0185883D01*
X0339069Y0189226D01*
X0339822Y0192589D01*
X0340492Y0195969D01*
X0341079Y0199364D01*
X0341583Y0202773D01*
X0342003Y0206193D01*
X0342340Y0209623D01*
X0342593Y0213059D01*
X0342761Y0216501D01*
X0342845Y0219946D01*
X0342845Y0223392D01*
X0342761Y0226837D01*
X0342593Y0230279D01*
X0342340Y0233715D01*
X0342003Y0237145D01*
X0341583Y0240565D01*
X0341079Y0243974D01*
X0340492Y0247369D01*
X0339822Y0250749D01*
X0339069Y0254112D01*
X0338235Y0257455D01*
X0337319Y0260777D01*
X0336322Y0264076D01*
X0335244Y0267349D01*
X0334087Y0270595D01*
X0332851Y0273811D01*
X0331536Y0276996D01*
X0330144Y0280149D01*
X0328676Y0283266D01*
X0327131Y0286346D01*
X0325512Y0289388D01*
X0323818Y0292389D01*
X0322052Y0295348D01*
X0320214Y0298263D01*
X0318305Y0301132D01*
X0316327Y0303953D01*
X0314280Y0306725D01*
X0312166Y0309446D01*
X0309986Y0312115D01*
X0307741Y0314730D01*
X0305434Y0317289D01*
X0303064Y0319790D01*
X0300634Y0322233D01*
X0298144Y0324616D01*
X0295598Y0326937D01*
X0292995Y0329196D01*
X0290338Y0331389D01*
X0287627Y0333518D01*
X0284866Y0335579D01*
X0282055Y0337572D01*
X0279196Y0339496D01*
X0276291Y0341349D01*
X0273342Y0343131D01*
X0270349Y0344840D01*
X0267316Y0346475D01*
X0264244Y0348036D01*
X0261135Y0349521D01*
X0257990Y0350930D01*
X0254811Y0352261D01*
X0251601Y0353514D01*
X0248362Y0354688D01*
X0245094Y0355783D01*
X0241801Y0356797D01*
X0238484Y0357730D01*
X0235145Y0358582D01*
X0231786Y0359353D01*
X0228410Y0360040D01*
X0225017Y0360645D01*
X0221611Y0361167D01*
X0218193Y0361605D01*
X0214766Y0361960D01*
X0211330Y0362231D01*
X0207890Y0362417D01*
X0207889Y0358480D02*
X0211231Y0358294D01*
X0214568Y0358028D01*
X0217897Y0357679D01*
X0221216Y0357250D01*
X0224524Y0356739D01*
X0227818Y0356148D01*
X0231097Y0355476D01*
X0234359Y0354725D01*
X0237601Y0353894D01*
X0240822Y0352984D01*
X0244020Y0351996D01*
X0247192Y0350929D01*
X0250338Y0349786D01*
X0253455Y0348566D01*
X0256541Y0347270D01*
X0259594Y0345899D01*
X0262613Y0344454D01*
X0265596Y0342935D01*
X0268541Y0341345D01*
X0271446Y0339682D01*
X0274309Y0337949D01*
X0277129Y0336147D01*
X0279905Y0334276D01*
X0282634Y0332338D01*
X0285314Y0330334D01*
X0287945Y0328265D01*
X0290525Y0326132D01*
X0293051Y0323937D01*
X0295524Y0321681D01*
X0297940Y0319365D01*
X0300299Y0316990D01*
X0302599Y0314559D01*
X0304840Y0312072D01*
X0307018Y0309532D01*
X0309134Y0306938D01*
X0311186Y0304294D01*
X0313173Y0301600D01*
X0315093Y0298859D01*
X0316946Y0296072D01*
X0318730Y0293240D01*
X0320444Y0290365D01*
X0322088Y0287449D01*
X0323660Y0284494D01*
X0325159Y0281502D01*
X0326584Y0278474D01*
X0327936Y0275411D01*
X0329211Y0272317D01*
X0330411Y0269192D01*
X0331534Y0266039D01*
X0332580Y0262860D01*
X0333548Y0259656D01*
X0334437Y0256429D01*
X0335247Y0253182D01*
X0335977Y0249915D01*
X0336627Y0246632D01*
X0337197Y0243334D01*
X0337686Y0240023D01*
X0338094Y0236701D01*
X0338421Y0233370D01*
X0338666Y0230032D01*
X0338830Y0226689D01*
X0338912Y0223343D01*
X0338912Y0219995D01*
X0338830Y0216649D01*
X0338666Y0213306D01*
X0338421Y0209968D01*
X0338094Y0206637D01*
X0337686Y0203315D01*
X0337197Y0200004D01*
X0336627Y0196706D01*
X0335977Y0193423D01*
X0335247Y0190156D01*
X0334437Y0186909D01*
X0333548Y0183682D01*
X0332580Y0180478D01*
X0331534Y0177299D01*
X0330411Y0174146D01*
X0329211Y0171021D01*
X0327936Y0167927D01*
X0326584Y0164864D01*
X0325159Y0161836D01*
X0323660Y0158844D01*
X0322088Y0155889D01*
X0320444Y0152973D01*
X0318730Y0150098D01*
X0316946Y0147266D01*
X0315093Y0144479D01*
X0313173Y0141738D01*
X0311186Y0139044D01*
X0309134Y0136400D01*
X0307018Y0133806D01*
X0304840Y0131266D01*
X0302599Y0128779D01*
X0300299Y0126348D01*
X0297940Y0123973D01*
X0295524Y0121657D01*
X0293051Y0119401D01*
X0290525Y0117206D01*
X0287945Y0115073D01*
X0285314Y0113004D01*
X0282634Y0111000D01*
X0279905Y0109062D01*
X0277129Y0107191D01*
X0274309Y0105389D01*
X0271446Y0103656D01*
X0268541Y0101993D01*
X0265596Y0100403D01*
X0262613Y0098884D01*
X0259594Y0097439D01*
X0256541Y0096068D01*
X0253455Y0094772D01*
X0250338Y0093552D01*
X0247192Y0092409D01*
X0244020Y0091342D01*
X0240822Y0090354D01*
X0237601Y0089444D01*
X0234359Y0088613D01*
X0231097Y0087862D01*
X0227818Y0087190D01*
X0224524Y0086599D01*
X0221216Y0086088D01*
X0217897Y0085659D01*
X0214568Y0085310D01*
X0211231Y0085044D01*
X0207889Y0084858D01*
X0207890Y0114385D02*
X0210510Y0114562D01*
X0213126Y0114802D01*
X0215735Y0115107D01*
X0218336Y0115475D01*
X0220927Y0115906D01*
X0223507Y0116401D01*
X0226074Y0116958D01*
X0228627Y0117579D01*
X0231163Y0118261D01*
X0233683Y0119005D01*
X0236183Y0119811D01*
X0238663Y0120677D01*
X0241121Y0121604D01*
X0243555Y0122591D01*
X0245965Y0123637D01*
X0248348Y0124741D01*
X0250704Y0125903D01*
X0253030Y0127123D01*
X0255326Y0128399D01*
X0257590Y0129731D01*
X0259821Y0131118D01*
X0262018Y0132559D01*
X0264178Y0134053D01*
X0266301Y0135600D01*
X0268386Y0137198D01*
X0270431Y0138846D01*
X0272436Y0140544D01*
X0274398Y0142291D01*
X0276317Y0144085D01*
X0278191Y0145925D01*
X0280020Y0147811D01*
X0281802Y0149740D01*
X0283537Y0151713D01*
X0285222Y0153728D01*
X0286858Y0155783D01*
X0288444Y0157877D01*
X0289977Y0160010D01*
X0291458Y0162179D01*
X0292886Y0164385D01*
X0294259Y0166624D01*
X0295577Y0168896D01*
X0296839Y0171200D01*
X0298045Y0173534D01*
X0299193Y0175896D01*
X0300283Y0178286D01*
X0301314Y0180702D01*
X0302285Y0183143D01*
X0303197Y0185606D01*
X0304049Y0188091D01*
X0304839Y0190597D01*
X0305568Y0193120D01*
X0306235Y0195661D01*
X0306839Y0198217D01*
X0307381Y0200788D01*
X0307860Y0203370D01*
X0308276Y0205964D01*
X0308628Y0208567D01*
X0308917Y0211178D01*
X0309141Y0213795D01*
X0309302Y0216417D01*
X0309398Y0219042D01*
X0309430Y0221669D01*
X0309398Y0224296D01*
X0309302Y0226921D01*
X0309141Y0229543D01*
X0308917Y0232160D01*
X0308628Y0234771D01*
X0308276Y0237374D01*
X0307860Y0239968D01*
X0307381Y0242550D01*
X0306839Y0245121D01*
X0306235Y0247677D01*
X0305568Y0250218D01*
X0304839Y0252741D01*
X0304049Y0255247D01*
X0303197Y0257732D01*
X0302285Y0260195D01*
X0301314Y0262636D01*
X0300283Y0265052D01*
X0299193Y0267442D01*
X0298045Y0269804D01*
X0296839Y0272138D01*
X0295577Y0274442D01*
X0294259Y0276714D01*
X0292886Y0278953D01*
X0291458Y0281159D01*
X0289977Y0283328D01*
X0288444Y0285461D01*
X0286858Y0287555D01*
X0285222Y0289610D01*
X0283537Y0291625D01*
X0281802Y0293598D01*
X0280020Y0295527D01*
X0278191Y0297413D01*
X0276317Y0299253D01*
X0274398Y0301047D01*
X0272436Y0302794D01*
X0270431Y0304492D01*
X0268386Y0306140D01*
X0266301Y0307738D01*
X0264178Y0309285D01*
X0262018Y0310779D01*
X0259821Y0312220D01*
X0257590Y0313607D01*
X0255326Y0314939D01*
X0253030Y0316215D01*
X0250704Y0317435D01*
X0248348Y0318597D01*
X0245965Y0319701D01*
X0243555Y0320747D01*
X0241121Y0321734D01*
X0238663Y0322661D01*
X0236183Y0323527D01*
X0233683Y0324333D01*
X0231163Y0325077D01*
X0228627Y0325759D01*
X0226074Y0326380D01*
X0223507Y0326937D01*
X0220927Y0327432D01*
X0218336Y0327863D01*
X0215735Y0328231D01*
X0213126Y0328536D01*
X0210510Y0328776D01*
X0207890Y0328953D01*
X0207890Y0332889D02*
X0210610Y0332711D01*
X0213326Y0332467D01*
X0216034Y0332156D01*
X0218734Y0331779D01*
X0221425Y0331336D01*
X0224103Y0330828D01*
X0226768Y0330253D01*
X0229419Y0329614D01*
X0232053Y0328910D01*
X0234669Y0328142D01*
X0237265Y0327310D01*
X0239840Y0326415D01*
X0242393Y0325457D01*
X0244921Y0324437D01*
X0247424Y0323355D01*
X0249899Y0322212D01*
X0252346Y0321009D01*
X0254763Y0319747D01*
X0257147Y0318426D01*
X0259499Y0317046D01*
X0261817Y0315610D01*
X0264098Y0314117D01*
X0266342Y0312569D01*
X0268548Y0310967D01*
X0270714Y0309310D01*
X0272839Y0307602D01*
X0274921Y0305842D01*
X0276959Y0304031D01*
X0278953Y0302171D01*
X0280900Y0300263D01*
X0282800Y0298308D01*
X0284652Y0296307D01*
X0286454Y0294261D01*
X0288206Y0292172D01*
X0289906Y0290040D01*
X0291553Y0287868D01*
X0293146Y0285655D01*
X0294685Y0283405D01*
X0296169Y0281117D01*
X0297596Y0278794D01*
X0298965Y0276436D01*
X0300277Y0274046D01*
X0301529Y0271625D01*
X0302722Y0269173D01*
X0303855Y0266693D01*
X0304926Y0264186D01*
X0305936Y0261653D01*
X0306884Y0259097D01*
X0307769Y0256518D01*
X0308590Y0253918D01*
X0309347Y0251299D01*
X0310040Y0248662D01*
X0310669Y0246009D01*
X0311232Y0243342D01*
X0311730Y0240661D01*
X0312162Y0237969D01*
X0312528Y0235267D01*
X0312827Y0232558D01*
X0313061Y0229841D01*
X0313228Y0227120D01*
X0313328Y0224395D01*
X0313361Y0221669D01*
X0313328Y0218943D01*
X0313228Y0216218D01*
X0313061Y0213497D01*
X0312827Y0210780D01*
X0312528Y0208071D01*
X0312162Y0205369D01*
X0311730Y0202677D01*
X0311232Y0199996D01*
X0310669Y0197329D01*
X0310040Y0194676D01*
X0309347Y0192039D01*
X0308590Y0189420D01*
X0307769Y0186820D01*
X0306884Y0184241D01*
X0305936Y0181685D01*
X0304926Y0179152D01*
X0303855Y0176645D01*
X0302722Y0174165D01*
X0301529Y0171713D01*
X0300277Y0169292D01*
X0298965Y0166902D01*
X0297596Y0164544D01*
X0296169Y0162221D01*
X0294685Y0159933D01*
X0293146Y0157683D01*
X0291553Y0155470D01*
X0289906Y0153298D01*
X0288206Y0151166D01*
X0286454Y0149077D01*
X0284652Y0147031D01*
X0282800Y0145030D01*
X0280900Y0143075D01*
X0278953Y0141167D01*
X0276959Y0139307D01*
X0274921Y0137496D01*
X0272839Y0135736D01*
X0270714Y0134028D01*
X0268548Y0132371D01*
X0266342Y0130769D01*
X0264098Y0129221D01*
X0261817Y0127728D01*
X0259499Y0126292D01*
X0257147Y0124912D01*
X0254763Y0123591D01*
X0252346Y0122329D01*
X0249899Y0121126D01*
X0247424Y0119983D01*
X0244921Y0118901D01*
X0242393Y0117881D01*
X0239840Y0116923D01*
X0237265Y0116028D01*
X0234669Y0115196D01*
X0232053Y0114428D01*
X0229419Y0113724D01*
X0226768Y0113085D01*
X0224103Y0112510D01*
X0221425Y0112002D01*
X0218734Y0111559D01*
X0216034Y0111182D01*
X0213326Y0110871D01*
X0210610Y0110627D01*
X0207890Y0110449D01*
X0207889Y0202968D02*
X0208343Y0203117D01*
X0208792Y0203278D01*
X0209237Y0203449D01*
X0209678Y0203630D01*
X0210115Y0203823D01*
X0210546Y0204026D01*
X0210973Y0204239D01*
X0211394Y0204463D01*
X0211810Y0204697D01*
X0212220Y0204941D01*
X0212624Y0205195D01*
X0213021Y0205459D01*
X0213412Y0205732D01*
X0213797Y0206015D01*
X0214174Y0206307D01*
X0214544Y0206608D01*
X0214906Y0206918D01*
X0215261Y0207236D01*
X0215609Y0207564D01*
X0215948Y0207899D01*
X0216278Y0208243D01*
X0216601Y0208595D01*
X0216914Y0208954D01*
X0217219Y0209321D01*
X0217515Y0209695D01*
X0217802Y0210076D01*
X0218079Y0210465D01*
X0218347Y0210859D01*
X0218605Y0211261D01*
X0218853Y0211668D01*
X0219091Y0212081D01*
X0219320Y0212500D01*
X0219537Y0212924D01*
X0219745Y0213354D01*
X0219942Y0213788D01*
X0220128Y0214228D01*
X0220304Y0214671D01*
X0220469Y0215119D01*
X0220623Y0215570D01*
X0220765Y0216025D01*
X0220897Y0216484D01*
X0221018Y0216945D01*
X0221127Y0217410D01*
X0221225Y0217877D01*
X0221311Y0218346D01*
X0221386Y0218817D01*
X0221450Y0219290D01*
X0221502Y0219764D01*
X0221543Y0220239D01*
X0221572Y0220715D01*
X0221589Y0221192D01*
X0221595Y0221669D01*
X0221589Y0222146D01*
X0221572Y0222623D01*
X0221543Y0223099D01*
X0221502Y0223574D01*
X0221450Y0224048D01*
X0221386Y0224521D01*
X0221311Y0224992D01*
X0221225Y0225461D01*
X0221127Y0225928D01*
X0221018Y0226393D01*
X0220897Y0226854D01*
X0220765Y0227313D01*
X0220623Y0227768D01*
X0220469Y0228219D01*
X0220304Y0228667D01*
X0220128Y0229110D01*
X0219942Y0229550D01*
X0219745Y0229984D01*
X0219537Y0230414D01*
X0219320Y0230838D01*
X0219091Y0231257D01*
X0218853Y0231670D01*
X0218605Y0232077D01*
X0218347Y0232479D01*
X0218079Y0232873D01*
X0217802Y0233262D01*
X0217515Y0233643D01*
X0217219Y0234017D01*
X0216914Y0234384D01*
X0216601Y0234743D01*
X0216278Y0235095D01*
X0215948Y0235439D01*
X0215609Y0235774D01*
X0215261Y0236102D01*
X0214906Y0236420D01*
X0214544Y0236730D01*
X0214174Y0237031D01*
X0213797Y0237323D01*
X0213412Y0237606D01*
X0213021Y0237879D01*
X0212624Y0238143D01*
X0212220Y0238397D01*
X0211810Y0238641D01*
X0211394Y0238875D01*
X0210973Y0239099D01*
X0210546Y0239312D01*
X0210115Y0239515D01*
X0209678Y0239708D01*
X0209237Y0239889D01*
X0208792Y0240060D01*
X0208343Y0240221D01*
X0207889Y0240370D01*
X0207889Y0244306D02*
X0208439Y0244156D01*
X0208985Y0243992D01*
X0209527Y0243815D01*
X0210064Y0243624D01*
X0210596Y0243421D01*
X0211124Y0243205D01*
X0211646Y0242976D01*
X0212162Y0242734D01*
X0212672Y0242480D01*
X0213176Y0242213D01*
X0213673Y0241935D01*
X0214163Y0241644D01*
X0214646Y0241341D01*
X0215122Y0241027D01*
X0215589Y0240701D01*
X0216049Y0240364D01*
X0216500Y0240016D01*
X0216943Y0239657D01*
X0217377Y0239287D01*
X0217801Y0238907D01*
X0218216Y0238516D01*
X0218622Y0238116D01*
X0219018Y0237706D01*
X0219403Y0237286D01*
X0219779Y0236857D01*
X0220143Y0236419D01*
X0220497Y0235972D01*
X0220840Y0235517D01*
X0221172Y0235054D01*
X0221492Y0234582D01*
X0221801Y0234103D01*
X0222098Y0233617D01*
X0222383Y0233123D01*
X0222656Y0232623D01*
X0222917Y0232116D01*
X0223165Y0231603D01*
X0223401Y0231084D01*
X0223624Y0230559D01*
X0223834Y0230030D01*
X0224031Y0229495D01*
X0224215Y0228955D01*
X0224386Y0228412D01*
X0224544Y0227864D01*
X0224688Y0227313D01*
X0224819Y0226758D01*
X0224936Y0226200D01*
X0225040Y0225640D01*
X0225129Y0225077D01*
X0225206Y0224512D01*
X0225268Y0223945D01*
X0225317Y0223377D01*
X0225351Y0222809D01*
X0225372Y0222239D01*
X0225379Y0221669D01*
X0225372Y0221099D01*
X0225351Y0220529D01*
X0225317Y0219961D01*
X0225268Y0219393D01*
X0225206Y0218826D01*
X0225129Y0218261D01*
X0225040Y0217698D01*
X0224936Y0217138D01*
X0224819Y0216580D01*
X0224688Y0216025D01*
X0224544Y0215474D01*
X0224386Y0214926D01*
X0224215Y0214383D01*
X0224031Y0213843D01*
X0223834Y0213308D01*
X0223624Y0212779D01*
X0223401Y0212254D01*
X0223165Y0211735D01*
X0222917Y0211222D01*
X0222656Y0210715D01*
X0222383Y0210215D01*
X0222098Y0209721D01*
X0221801Y0209235D01*
X0221492Y0208756D01*
X0221172Y0208284D01*
X0220840Y0207821D01*
X0220497Y0207366D01*
X0220143Y0206919D01*
X0219779Y0206481D01*
X0219403Y0206052D01*
X0219018Y0205632D01*
X0218622Y0205222D01*
X0218216Y0204822D01*
X0217801Y0204431D01*
X0217377Y0204051D01*
X0216943Y0203681D01*
X0216500Y0203322D01*
X0216049Y0202974D01*
X0215589Y0202637D01*
X0215122Y0202311D01*
X0214646Y0201997D01*
X0214163Y0201694D01*
X0213673Y0201403D01*
X0213176Y0201125D01*
X0212672Y0200858D01*
X0212162Y0200604D01*
X0211646Y0200362D01*
X0211124Y0200133D01*
X0210596Y0199917D01*
X0210064Y0199714D01*
X0209527Y0199523D01*
X0208985Y0199346D01*
X0208439Y0199182D01*
X0207889Y0199032D01*
X0207890Y0168519D02*
X0209192Y0168680D01*
X0210490Y0168873D01*
X0211783Y0169097D01*
X0213070Y0169354D01*
X0214350Y0169641D01*
X0215623Y0169961D01*
X0216888Y0170311D01*
X0218144Y0170692D01*
X0219390Y0171104D01*
X0220625Y0171546D01*
X0221849Y0172019D01*
X0223062Y0172521D01*
X0224261Y0173053D01*
X0225448Y0173614D01*
X0226620Y0174205D01*
X0227777Y0174823D01*
X0228919Y0175470D01*
X0230044Y0176145D01*
X0231153Y0176847D01*
X0232244Y0177577D01*
X0233317Y0178332D01*
X0234371Y0179114D01*
X0235405Y0179922D01*
X0236419Y0180754D01*
X0237413Y0181612D01*
X0238385Y0182493D01*
X0239335Y0183398D01*
X0240263Y0184326D01*
X0241168Y0185277D01*
X0242049Y0186249D01*
X0242906Y0187243D01*
X0243739Y0188257D01*
X0244546Y0189292D01*
X0245328Y0190346D01*
X0246083Y0191419D01*
X0246812Y0192510D01*
X0247514Y0193619D01*
X0248189Y0194745D01*
X0248835Y0195887D01*
X0249454Y0197044D01*
X0250044Y0198216D01*
X0250605Y0199403D01*
X0251137Y0200602D01*
X0251639Y0201815D01*
X0252111Y0203039D01*
X0252553Y0204275D01*
X0252965Y0205521D01*
X0253346Y0206777D01*
X0253696Y0208041D01*
X0254014Y0209314D01*
X0254302Y0210595D01*
X0254558Y0211882D01*
X0254782Y0213175D01*
X0254975Y0214473D01*
X0255135Y0215775D01*
X0255264Y0217081D01*
X0255360Y0218390D01*
X0255425Y0219701D01*
X0255457Y0221013D01*
X0255457Y0222325D01*
X0255425Y0223637D01*
X0255360Y0224948D01*
X0255264Y0226257D01*
X0255135Y0227563D01*
X0254975Y0228865D01*
X0254782Y0230163D01*
X0254558Y0231456D01*
X0254302Y0232743D01*
X0254014Y0234024D01*
X0253696Y0235297D01*
X0253346Y0236561D01*
X0252965Y0237817D01*
X0252553Y0239063D01*
X0252111Y0240299D01*
X0251639Y0241523D01*
X0251137Y0242736D01*
X0250605Y0243935D01*
X0250044Y0245122D01*
X0249454Y0246294D01*
X0248835Y0247451D01*
X0248189Y0248593D01*
X0247514Y0249719D01*
X0246812Y0250828D01*
X0246083Y0251919D01*
X0245328Y0252992D01*
X0244546Y0254046D01*
X0243739Y0255081D01*
X0242906Y0256095D01*
X0242049Y0257089D01*
X0241168Y0258061D01*
X0240263Y0259012D01*
X0239335Y0259940D01*
X0238385Y0260845D01*
X0237413Y0261726D01*
X0236419Y0262584D01*
X0235405Y0263416D01*
X0234371Y0264224D01*
X0233317Y0265006D01*
X0232244Y0265761D01*
X0231153Y0266491D01*
X0230044Y0267193D01*
X0228919Y0267868D01*
X0227777Y0268515D01*
X0226620Y0269133D01*
X0225448Y0269724D01*
X0224261Y0270285D01*
X0223062Y0270817D01*
X0221849Y0271319D01*
X0220625Y0271792D01*
X0219390Y0272234D01*
X0218144Y0272646D01*
X0216888Y0273027D01*
X0215623Y0273377D01*
X0214350Y0273697D01*
X0213070Y0273984D01*
X0211783Y0274241D01*
X0210490Y0274465D01*
X0209192Y0274658D01*
X0207890Y0274819D01*
X0196078Y0362417D02*
X0192638Y0362231D01*
X0189202Y0361960D01*
X0185775Y0361605D01*
X0182357Y0361167D01*
X0178951Y0360645D01*
X0175558Y0360040D01*
X0172182Y0359353D01*
X0168823Y0358582D01*
X0165484Y0357730D01*
X0162167Y0356797D01*
X0158874Y0355783D01*
X0155606Y0354688D01*
X0152367Y0353514D01*
X0149157Y0352261D01*
X0145978Y0350930D01*
X0142833Y0349521D01*
X0139724Y0348036D01*
X0136652Y0346475D01*
X0133619Y0344840D01*
X0130626Y0343131D01*
X0127677Y0341349D01*
X0124772Y0339496D01*
X0121913Y0337572D01*
X0119102Y0335579D01*
X0116341Y0333518D01*
X0113630Y0331389D01*
X0110973Y0329196D01*
X0108370Y0326937D01*
X0105824Y0324616D01*
X0103334Y0322233D01*
X0100904Y0319790D01*
X0098534Y0317289D01*
X0096227Y0314730D01*
X0093982Y0312115D01*
X0091802Y0309446D01*
X0089688Y0306725D01*
X0087641Y0303953D01*
X0085663Y0301132D01*
X0083754Y0298263D01*
X0081916Y0295348D01*
X0080150Y0292389D01*
X0078456Y0289388D01*
X0076837Y0286346D01*
X0075292Y0283266D01*
X0073824Y0280149D01*
X0072432Y0276996D01*
X0071117Y0273811D01*
X0069881Y0270595D01*
X0068724Y0267349D01*
X0067646Y0264076D01*
X0066649Y0260777D01*
X0065733Y0257455D01*
X0064899Y0254112D01*
X0064146Y0250749D01*
X0063476Y0247369D01*
X0062889Y0243974D01*
X0062385Y0240565D01*
X0061965Y0237145D01*
X0061628Y0233715D01*
X0061375Y0230279D01*
X0061207Y0226837D01*
X0061123Y0223392D01*
X0061123Y0219946D01*
X0061207Y0216501D01*
X0061375Y0213059D01*
X0061628Y0209623D01*
X0061965Y0206193D01*
X0062385Y0202773D01*
X0062889Y0199364D01*
X0063476Y0195969D01*
X0064146Y0192589D01*
X0064899Y0189226D01*
X0065733Y0185883D01*
X0066649Y0182561D01*
X0067646Y0179262D01*
X0068724Y0175989D01*
X0069881Y0172743D01*
X0071117Y0169527D01*
X0072432Y0166342D01*
X0073824Y0163189D01*
X0075292Y0160072D01*
X0076837Y0156992D01*
X0078456Y0153950D01*
X0080150Y0150949D01*
X0081916Y0147990D01*
X0083754Y0145075D01*
X0085663Y0142206D01*
X0087641Y0139385D01*
X0089688Y0136613D01*
X0091802Y0133892D01*
X0093982Y0131223D01*
X0096227Y0128608D01*
X0098534Y0126049D01*
X0100904Y0123548D01*
X0103334Y0121105D01*
X0105824Y0118722D01*
X0108370Y0116401D01*
X0110973Y0114142D01*
X0113630Y0111949D01*
X0116341Y0109820D01*
X0119102Y0107759D01*
X0121913Y0105766D01*
X0124772Y0103842D01*
X0127677Y0101989D01*
X0130626Y0100207D01*
X0133619Y0098498D01*
X0136652Y0096863D01*
X0139724Y0095302D01*
X0142833Y0093817D01*
X0145978Y0092408D01*
X0149157Y0091077D01*
X0152367Y0089824D01*
X0155606Y0088650D01*
X0158874Y0087555D01*
X0162167Y0086541D01*
X0165484Y0085608D01*
X0168823Y0084756D01*
X0172182Y0083985D01*
X0175558Y0083298D01*
X0178951Y0082693D01*
X0182357Y0082171D01*
X0185775Y0081733D01*
X0189202Y0081378D01*
X0192638Y0081107D01*
X0196078Y0080921D01*
X0207890Y0143913D02*
X0209793Y0144081D01*
X0211692Y0144296D01*
X0213585Y0144557D01*
X0215472Y0144864D01*
X0217350Y0145218D01*
X0219219Y0145617D01*
X0221077Y0146063D01*
X0222924Y0146553D01*
X0224759Y0147089D01*
X0226579Y0147669D01*
X0228385Y0148294D01*
X0230176Y0148963D01*
X0231949Y0149676D01*
X0233704Y0150432D01*
X0235440Y0151231D01*
X0237156Y0152072D01*
X0238851Y0152954D01*
X0240524Y0153879D01*
X0242174Y0154843D01*
X0243799Y0155848D01*
X0245400Y0156893D01*
X0246974Y0157976D01*
X0248521Y0159098D01*
X0250041Y0160257D01*
X0251531Y0161453D01*
X0252992Y0162685D01*
X0254422Y0163953D01*
X0255821Y0165255D01*
X0257187Y0166592D01*
X0258520Y0167961D01*
X0259819Y0169363D01*
X0261084Y0170796D01*
X0262313Y0172259D01*
X0263505Y0173752D01*
X0264661Y0175274D01*
X0265779Y0176824D01*
X0266859Y0178401D01*
X0267900Y0180004D01*
X0268901Y0181632D01*
X0269862Y0183284D01*
X0270782Y0184958D01*
X0271661Y0186655D01*
X0272498Y0188373D01*
X0273293Y0190111D01*
X0274045Y0191868D01*
X0274754Y0193643D01*
X0275419Y0195435D01*
X0276040Y0197242D01*
X0276616Y0199064D01*
X0277147Y0200900D01*
X0277634Y0202748D01*
X0278075Y0204608D01*
X0278470Y0206478D01*
X0278819Y0208357D01*
X0279122Y0210243D01*
X0279379Y0212137D01*
X0279590Y0214037D01*
X0279753Y0215941D01*
X0279870Y0217848D01*
X0279941Y0219758D01*
X0279964Y0221669D01*
X0279941Y0223580D01*
X0279870Y0225490D01*
X0279753Y0227397D01*
X0279590Y0229301D01*
X0279379Y0231201D01*
X0279122Y0233095D01*
X0278819Y0234981D01*
X0278470Y0236860D01*
X0278075Y0238730D01*
X0277634Y0240590D01*
X0277147Y0242438D01*
X0276616Y0244274D01*
X0276040Y0246096D01*
X0275419Y0247903D01*
X0274754Y0249695D01*
X0274045Y0251470D01*
X0273293Y0253227D01*
X0272498Y0254965D01*
X0271661Y0256683D01*
X0270782Y0258380D01*
X0269862Y0260054D01*
X0268901Y0261706D01*
X0267900Y0263334D01*
X0266859Y0264937D01*
X0265779Y0266514D01*
X0264661Y0268064D01*
X0263505Y0269586D01*
X0262313Y0271079D01*
X0261084Y0272542D01*
X0259819Y0273975D01*
X0258520Y0275377D01*
X0257187Y0276746D01*
X0255821Y0278083D01*
X0254422Y0279385D01*
X0252992Y0280653D01*
X0251531Y0281885D01*
X0250041Y0283081D01*
X0248521Y0284240D01*
X0246974Y0285362D01*
X0245400Y0286445D01*
X0243799Y0287490D01*
X0242174Y0288495D01*
X0240524Y0289459D01*
X0238851Y0290384D01*
X0237156Y0291266D01*
X0235440Y0292107D01*
X0233704Y0292906D01*
X0231949Y0293662D01*
X0230176Y0294375D01*
X0228385Y0295044D01*
X0226579Y0295669D01*
X0224759Y0296249D01*
X0222924Y0296785D01*
X0221077Y0297275D01*
X0219219Y0297721D01*
X0217350Y0298120D01*
X0215472Y0298474D01*
X0213585Y0298781D01*
X0211692Y0299042D01*
X0209793Y0299257D01*
X0207890Y0299425D01*
X0207890Y0303362D02*
X0209878Y0303194D01*
X0211862Y0302977D01*
X0213840Y0302712D01*
X0215812Y0302399D01*
X0217775Y0302038D01*
X0219728Y0301630D01*
X0221671Y0301174D01*
X0223603Y0300670D01*
X0225521Y0300120D01*
X0227426Y0299523D01*
X0229315Y0298880D01*
X0231188Y0298192D01*
X0233044Y0297457D01*
X0234881Y0296678D01*
X0236699Y0295854D01*
X0238497Y0294986D01*
X0240272Y0294075D01*
X0242025Y0293120D01*
X0243754Y0292124D01*
X0245458Y0291085D01*
X0247137Y0290005D01*
X0248788Y0288885D01*
X0250412Y0287724D01*
X0252007Y0286525D01*
X0253573Y0285287D01*
X0255108Y0284011D01*
X0256611Y0282698D01*
X0258082Y0281349D01*
X0259519Y0279964D01*
X0260922Y0278545D01*
X0262291Y0277092D01*
X0263623Y0275606D01*
X0264919Y0274088D01*
X0266178Y0272539D01*
X0267398Y0270960D01*
X0268580Y0269351D01*
X0269722Y0267715D01*
X0270823Y0266051D01*
X0271884Y0264360D01*
X0272904Y0262644D01*
X0273881Y0260904D01*
X0274816Y0259141D01*
X0275707Y0257355D01*
X0276555Y0255548D01*
X0277358Y0253721D01*
X0278117Y0251875D01*
X0278830Y0250011D01*
X0279498Y0248130D01*
X0280120Y0246234D01*
X0280695Y0244322D01*
X0281224Y0242398D01*
X0281705Y0240461D01*
X0282139Y0238513D01*
X0282526Y0236555D01*
X0282865Y0234588D01*
X0283155Y0232614D01*
X0283398Y0230632D01*
X0283592Y0228646D01*
X0283738Y0226656D01*
X0283835Y0224662D01*
X0283884Y0222667D01*
X0283884Y0220671D01*
X0283835Y0218676D01*
X0283738Y0216682D01*
X0283592Y0214692D01*
X0283398Y0212706D01*
X0283155Y0210724D01*
X0282865Y0208750D01*
X0282526Y0206783D01*
X0282139Y0204825D01*
X0281705Y0202877D01*
X0281224Y0200940D01*
X0280695Y0199016D01*
X0280120Y0197104D01*
X0279498Y0195208D01*
X0278830Y0193327D01*
X0278117Y0191463D01*
X0277358Y0189617D01*
X0276555Y0187790D01*
X0275707Y0185983D01*
X0274816Y0184197D01*
X0273881Y0182434D01*
X0272904Y0180694D01*
X0271884Y0178978D01*
X0270823Y0177287D01*
X0269722Y0175623D01*
X0268580Y0173987D01*
X0267398Y0172378D01*
X0266178Y0170799D01*
X0264919Y0169250D01*
X0263623Y0167732D01*
X0262291Y0166246D01*
X0260922Y0164793D01*
X0259519Y0163374D01*
X0258082Y0161989D01*
X0256611Y0160640D01*
X0255108Y0159327D01*
X0253573Y0158051D01*
X0252007Y0156813D01*
X0250412Y0155614D01*
X0248788Y0154453D01*
X0247137Y0153333D01*
X0245458Y0152253D01*
X0243754Y0151214D01*
X0242025Y0150218D01*
X0240272Y0149263D01*
X0238497Y0148352D01*
X0236699Y0147484D01*
X0234881Y0146660D01*
X0233044Y0145881D01*
X0231188Y0145146D01*
X0229315Y0144458D01*
X0227426Y0143815D01*
X0225521Y0143218D01*
X0223603Y0142668D01*
X0221671Y0142164D01*
X0219728Y0141708D01*
X0217775Y0141300D01*
X0215812Y0140939D01*
X0213840Y0140626D01*
X0211862Y0140361D01*
X0209878Y0140144D01*
X0207890Y0139976D01*
X0207890Y0172456D02*
X0209088Y0172615D01*
X0210282Y0172803D01*
X0211472Y0173020D01*
X0212656Y0173265D01*
X0213833Y0173540D01*
X0215003Y0173843D01*
X0216166Y0174175D01*
X0217320Y0174535D01*
X0218465Y0174923D01*
X0219600Y0175339D01*
X0220725Y0175783D01*
X0221839Y0176253D01*
X0222941Y0176751D01*
X0224030Y0177276D01*
X0225106Y0177827D01*
X0226169Y0178404D01*
X0227217Y0179006D01*
X0228250Y0179634D01*
X0229267Y0180288D01*
X0230268Y0180965D01*
X0231253Y0181667D01*
X0232220Y0182393D01*
X0233169Y0183142D01*
X0234099Y0183914D01*
X0235010Y0184709D01*
X0235902Y0185525D01*
X0236773Y0186363D01*
X0237624Y0187222D01*
X0238454Y0188102D01*
X0239262Y0189001D01*
X0240047Y0189920D01*
X0240810Y0190858D01*
X0241550Y0191814D01*
X0242267Y0192788D01*
X0242959Y0193779D01*
X0243627Y0194787D01*
X0244270Y0195811D01*
X0244888Y0196850D01*
X0245481Y0197904D01*
X0246048Y0198972D01*
X0246588Y0200053D01*
X0247102Y0201147D01*
X0247589Y0202254D01*
X0248049Y0203372D01*
X0248482Y0204501D01*
X0248887Y0205640D01*
X0249264Y0206789D01*
X0249613Y0207947D01*
X0249933Y0209112D01*
X0250225Y0210286D01*
X0250488Y0211466D01*
X0250723Y0212652D01*
X0250928Y0213843D01*
X0251105Y0215039D01*
X0251252Y0216239D01*
X0251369Y0217442D01*
X0251458Y0218648D01*
X0251517Y0219856D01*
X0251546Y0221064D01*
X0251546Y0222274D01*
X0251517Y0223482D01*
X0251458Y0224690D01*
X0251369Y0225896D01*
X0251252Y0227099D01*
X0251105Y0228299D01*
X0250928Y0229495D01*
X0250723Y0230686D01*
X0250488Y0231872D01*
X0250225Y0233052D01*
X0249933Y0234226D01*
X0249613Y0235391D01*
X0249264Y0236549D01*
X0248887Y0237698D01*
X0248482Y0238837D01*
X0248049Y0239966D01*
X0247589Y0241084D01*
X0247102Y0242191D01*
X0246588Y0243285D01*
X0246048Y0244366D01*
X0245481Y0245434D01*
X0244888Y0246488D01*
X0244270Y0247527D01*
X0243627Y0248551D01*
X0242959Y0249559D01*
X0242267Y0250550D01*
X0241550Y0251524D01*
X0240810Y0252480D01*
X0240047Y0253418D01*
X0239262Y0254337D01*
X0238454Y0255236D01*
X0237624Y0256116D01*
X0236773Y0256975D01*
X0235902Y0257813D01*
X0235010Y0258629D01*
X0234099Y0259424D01*
X0233169Y0260196D01*
X0232220Y0260945D01*
X0231253Y0261671D01*
X0230268Y0262373D01*
X0229267Y0263050D01*
X0228250Y0263704D01*
X0227217Y0264332D01*
X0226169Y0264934D01*
X0225106Y0265511D01*
X0224030Y0266062D01*
X0222941Y0266587D01*
X0221839Y0267085D01*
X0220725Y0267555D01*
X0219600Y0267999D01*
X0218465Y0268415D01*
X0217320Y0268803D01*
X0216166Y0269163D01*
X0215003Y0269495D01*
X0213833Y0269798D01*
X0212656Y0270073D01*
X0211472Y0270318D01*
X0210282Y0270535D01*
X0209088Y0270723D01*
X0207890Y0270882D01*
X0196079Y0388007D02*
X0192027Y0387814D01*
X0187981Y0387522D01*
X0183944Y0387131D01*
X0179918Y0386643D01*
X0175904Y0386056D01*
X0171906Y0385372D01*
X0167926Y0384590D01*
X0163966Y0383712D01*
X0160029Y0382737D01*
X0156116Y0381667D01*
X0152231Y0380502D01*
X0148376Y0379243D01*
X0144552Y0377889D01*
X0140762Y0376444D01*
X0137009Y0374906D01*
X0133294Y0373277D01*
X0129620Y0371558D01*
X0125989Y0369750D01*
X0122404Y0367855D01*
X0118865Y0365872D01*
X0115376Y0363804D01*
X0111938Y0361651D01*
X0108554Y0359415D01*
X0105225Y0357098D01*
X0101954Y0354700D01*
X0098742Y0352223D01*
X0095591Y0349668D01*
X0092504Y0347038D01*
X0089481Y0344333D01*
X0086526Y0341555D01*
X0083639Y0338706D01*
X0080822Y0335787D01*
X0078077Y0332801D01*
X0075406Y0329749D01*
X0072810Y0326632D01*
X0070290Y0323453D01*
X0067849Y0320214D01*
X0065488Y0316916D01*
X0063207Y0313562D01*
X0061009Y0310153D01*
X0058895Y0306692D01*
X0056866Y0303180D01*
X0054923Y0299619D01*
X0053067Y0296013D01*
X0051300Y0292362D01*
X0049622Y0288669D01*
X0048034Y0284936D01*
X0046538Y0281166D01*
X0045135Y0277361D01*
X0043824Y0273522D01*
X0042608Y0269653D01*
X0041486Y0265755D01*
X0040459Y0261831D01*
X0039528Y0257883D01*
X0038694Y0253914D01*
X0037957Y0249925D01*
X0037317Y0245920D01*
X0036775Y0241900D01*
X0036331Y0237868D01*
X0035986Y0233827D01*
X0035739Y0229778D01*
X0035590Y0225725D01*
X0035541Y0221669D01*
X0035590Y0217613D01*
X0035739Y0213560D01*
X0035986Y0209511D01*
X0036331Y0205470D01*
X0036775Y0201438D01*
X0037317Y0197418D01*
X0037957Y0193413D01*
X0038694Y0189424D01*
X0039528Y0185455D01*
X0040459Y0181507D01*
X0041486Y0177583D01*
X0042608Y0173685D01*
X0043824Y0169816D01*
X0045135Y0165977D01*
X0046538Y0162172D01*
X0048034Y0158402D01*
X0049622Y0154669D01*
X0051300Y0150976D01*
X0053067Y0147325D01*
X0054923Y0143719D01*
X0056866Y0140158D01*
X0058895Y0136646D01*
X0061009Y0133185D01*
X0063207Y0129776D01*
X0065488Y0126422D01*
X0067849Y0123124D01*
X0070290Y0119885D01*
X0072810Y0116706D01*
X0075406Y0113589D01*
X0078077Y0110537D01*
X0080822Y0107551D01*
X0083639Y0104632D01*
X0086526Y0101783D01*
X0089481Y0099005D01*
X0092504Y0096300D01*
X0095591Y0093670D01*
X0098742Y0091115D01*
X0101954Y0088638D01*
X0105225Y0086240D01*
X0108554Y0083923D01*
X0111938Y0081687D01*
X0115376Y0079534D01*
X0118865Y0077466D01*
X0122404Y0075483D01*
X0125989Y0073588D01*
X0129620Y0071780D01*
X0133294Y0070061D01*
X0137009Y0068432D01*
X0140762Y0066894D01*
X0144552Y0065449D01*
X0148376Y0064095D01*
X0152231Y0062836D01*
X0156116Y0061671D01*
X0160029Y0060601D01*
X0163966Y0059626D01*
X0167926Y0058748D01*
X0171906Y0057966D01*
X0175904Y0057282D01*
X0179918Y0056695D01*
X0183944Y0056207D01*
X0187981Y0055816D01*
X0192027Y0055524D01*
X0196079Y0055331D01*
X0196078Y0051393D02*
X0191929Y0051588D01*
X0187785Y0051884D01*
X0183650Y0052280D01*
X0179526Y0052778D01*
X0175415Y0053375D01*
X0171319Y0054073D01*
X0167242Y0054871D01*
X0163186Y0055767D01*
X0159153Y0056762D01*
X0155145Y0057856D01*
X0151165Y0059046D01*
X0147215Y0060334D01*
X0143298Y0061717D01*
X0139416Y0063195D01*
X0135571Y0064768D01*
X0131765Y0066434D01*
X0128001Y0068192D01*
X0124282Y0070041D01*
X0120608Y0071981D01*
X0116983Y0074009D01*
X0113408Y0076125D01*
X0109886Y0078328D01*
X0106418Y0080616D01*
X0103008Y0082988D01*
X0099656Y0085442D01*
X0096365Y0087978D01*
X0093137Y0090593D01*
X0089974Y0093285D01*
X0086877Y0096054D01*
X0083849Y0098898D01*
X0080891Y0101815D01*
X0078004Y0104803D01*
X0075192Y0107860D01*
X0072455Y0110985D01*
X0069795Y0114176D01*
X0067214Y0117431D01*
X0064712Y0120748D01*
X0062293Y0124124D01*
X0059956Y0127559D01*
X0057704Y0131050D01*
X0055537Y0134594D01*
X0053458Y0138191D01*
X0051467Y0141837D01*
X0049565Y0145530D01*
X0047754Y0149269D01*
X0046035Y0153051D01*
X0044408Y0156873D01*
X0042875Y0160734D01*
X0041437Y0164631D01*
X0040094Y0168563D01*
X0038847Y0172525D01*
X0037698Y0176517D01*
X0036646Y0180536D01*
X0035692Y0184579D01*
X0034837Y0188645D01*
X0034082Y0192730D01*
X0033426Y0196832D01*
X0032871Y0200949D01*
X0032416Y0205078D01*
X0032062Y0209217D01*
X0031809Y0213364D01*
X0031657Y0217515D01*
X0031606Y0221669D01*
X0031657Y0225823D01*
X0031809Y0229974D01*
X0032062Y0234121D01*
X0032416Y0238260D01*
X0032871Y0242389D01*
X0033426Y0246506D01*
X0034082Y0250608D01*
X0034837Y0254693D01*
X0035692Y0258759D01*
X0036646Y0262802D01*
X0037698Y0266821D01*
X0038847Y0270813D01*
X0040094Y0274775D01*
X0041437Y0278707D01*
X0042875Y0282604D01*
X0044408Y0286465D01*
X0046035Y0290287D01*
X0047754Y0294069D01*
X0049565Y0297808D01*
X0051467Y0301501D01*
X0053458Y0305147D01*
X0055537Y0308744D01*
X0057704Y0312288D01*
X0059956Y0315779D01*
X0062293Y0319214D01*
X0064712Y0322590D01*
X0067214Y0325907D01*
X0069795Y0329162D01*
X0072455Y0332353D01*
X0075192Y0335478D01*
X0078004Y0338535D01*
X0080891Y0341523D01*
X0083849Y0344440D01*
X0086877Y0347284D01*
X0089974Y0350053D01*
X0093137Y0352745D01*
X0096365Y0355360D01*
X0099656Y0357896D01*
X0103008Y0360350D01*
X0106418Y0362722D01*
X0109886Y0365010D01*
X0113408Y0367213D01*
X0116983Y0369329D01*
X0120608Y0371357D01*
X0124282Y0373297D01*
X0128001Y0375146D01*
X0131765Y0376904D01*
X0135571Y0378570D01*
X0139416Y0380143D01*
X0143298Y0381621D01*
X0147215Y0383004D01*
X0151165Y0384292D01*
X0155145Y0385482D01*
X0159153Y0386576D01*
X0163186Y0387571D01*
X0167242Y0388467D01*
X0171319Y0389265D01*
X0175415Y0389963D01*
X0179526Y0390560D01*
X0183650Y0391058D01*
X0187785Y0391454D01*
X0191929Y0391750D01*
X0196078Y0391945D01*
X0196079Y0358480D02*
X0192737Y0358294D01*
X0189400Y0358028D01*
X0186071Y0357679D01*
X0182752Y0357250D01*
X0179444Y0356739D01*
X0176150Y0356148D01*
X0172871Y0355476D01*
X0169609Y0354725D01*
X0166367Y0353894D01*
X0163146Y0352984D01*
X0159948Y0351996D01*
X0156776Y0350929D01*
X0153630Y0349786D01*
X0150513Y0348566D01*
X0147427Y0347270D01*
X0144374Y0345899D01*
X0141355Y0344454D01*
X0138372Y0342935D01*
X0135427Y0341345D01*
X0132522Y0339682D01*
X0129659Y0337949D01*
X0126839Y0336147D01*
X0124063Y0334276D01*
X0121334Y0332338D01*
X0118654Y0330334D01*
X0116023Y0328265D01*
X0113443Y0326132D01*
X0110917Y0323937D01*
X0108444Y0321681D01*
X0106028Y0319365D01*
X0103669Y0316990D01*
X0101369Y0314559D01*
X0099128Y0312072D01*
X0096950Y0309532D01*
X0094834Y0306938D01*
X0092782Y0304294D01*
X0090795Y0301600D01*
X0088875Y0298859D01*
X0087022Y0296072D01*
X0085238Y0293240D01*
X0083524Y0290365D01*
X0081880Y0287449D01*
X0080308Y0284494D01*
X0078809Y0281502D01*
X0077384Y0278474D01*
X0076032Y0275411D01*
X0074757Y0272317D01*
X0073557Y0269192D01*
X0072434Y0266039D01*
X0071388Y0262860D01*
X0070420Y0259656D01*
X0069531Y0256429D01*
X0068721Y0253182D01*
X0067991Y0249915D01*
X0067341Y0246632D01*
X0066771Y0243334D01*
X0066282Y0240023D01*
X0065874Y0236701D01*
X0065547Y0233370D01*
X0065302Y0230032D01*
X0065138Y0226689D01*
X0065056Y0223343D01*
X0065056Y0219995D01*
X0065138Y0216649D01*
X0065302Y0213306D01*
X0065547Y0209968D01*
X0065874Y0206637D01*
X0066282Y0203315D01*
X0066771Y0200004D01*
X0067341Y0196706D01*
X0067991Y0193423D01*
X0068721Y0190156D01*
X0069531Y0186909D01*
X0070420Y0183682D01*
X0071388Y0180478D01*
X0072434Y0177299D01*
X0073557Y0174146D01*
X0074757Y0171021D01*
X0076032Y0167927D01*
X0077384Y0164864D01*
X0078809Y0161836D01*
X0080308Y0158844D01*
X0081880Y0155889D01*
X0083524Y0152973D01*
X0085238Y0150098D01*
X0087022Y0147266D01*
X0088875Y0144479D01*
X0090795Y0141738D01*
X0092782Y0139044D01*
X0094834Y0136400D01*
X0096950Y0133806D01*
X0099128Y0131266D01*
X0101369Y0128779D01*
X0103669Y0126348D01*
X0106028Y0123973D01*
X0108444Y0121657D01*
X0110917Y0119401D01*
X0113443Y0117206D01*
X0116023Y0115073D01*
X0118654Y0113004D01*
X0121334Y0111000D01*
X0124063Y0109062D01*
X0126839Y0107191D01*
X0129659Y0105389D01*
X0132522Y0103656D01*
X0135427Y0101993D01*
X0138372Y0100403D01*
X0141355Y0098884D01*
X0144374Y0097439D01*
X0147427Y0096068D01*
X0150513Y0094772D01*
X0153630Y0093552D01*
X0156776Y0092409D01*
X0159948Y0091342D01*
X0163146Y0090354D01*
X0166367Y0089444D01*
X0169609Y0088613D01*
X0172871Y0087862D01*
X0176150Y0087190D01*
X0179444Y0086599D01*
X0182752Y0086088D01*
X0186071Y0085659D01*
X0189400Y0085310D01*
X0192737Y0085044D01*
X0196079Y0084858D01*
X0196078Y0114385D02*
X0193458Y0114562D01*
X0190842Y0114802D01*
X0188233Y0115107D01*
X0185632Y0115475D01*
X0183041Y0115906D01*
X0180461Y0116401D01*
X0177894Y0116958D01*
X0175341Y0117579D01*
X0172805Y0118261D01*
X0170285Y0119005D01*
X0167785Y0119811D01*
X0165305Y0120677D01*
X0162847Y0121604D01*
X0160413Y0122591D01*
X0158003Y0123637D01*
X0155620Y0124741D01*
X0153264Y0125903D01*
X0150938Y0127123D01*
X0148642Y0128399D01*
X0146378Y0129731D01*
X0144147Y0131118D01*
X0141950Y0132559D01*
X0139790Y0134053D01*
X0137667Y0135600D01*
X0135582Y0137198D01*
X0133537Y0138846D01*
X0131532Y0140544D01*
X0129570Y0142291D01*
X0127651Y0144085D01*
X0125777Y0145925D01*
X0123948Y0147811D01*
X0122166Y0149740D01*
X0120431Y0151713D01*
X0118746Y0153728D01*
X0117110Y0155783D01*
X0115524Y0157877D01*
X0113991Y0160010D01*
X0112510Y0162179D01*
X0111082Y0164385D01*
X0109709Y0166624D01*
X0108391Y0168896D01*
X0107129Y0171200D01*
X0105923Y0173534D01*
X0104775Y0175896D01*
X0103685Y0178286D01*
X0102654Y0180702D01*
X0101683Y0183143D01*
X0100771Y0185606D01*
X0099919Y0188091D01*
X0099129Y0190597D01*
X0098400Y0193120D01*
X0097733Y0195661D01*
X0097129Y0198217D01*
X0096587Y0200788D01*
X0096108Y0203370D01*
X0095692Y0205964D01*
X0095340Y0208567D01*
X0095051Y0211178D01*
X0094827Y0213795D01*
X0094666Y0216417D01*
X0094570Y0219042D01*
X0094538Y0221669D01*
X0094570Y0224296D01*
X0094666Y0226921D01*
X0094827Y0229543D01*
X0095051Y0232160D01*
X0095340Y0234771D01*
X0095692Y0237374D01*
X0096108Y0239968D01*
X0096587Y0242550D01*
X0097129Y0245121D01*
X0097733Y0247677D01*
X0098400Y0250218D01*
X0099129Y0252741D01*
X0099919Y0255247D01*
X0100771Y0257732D01*
X0101683Y0260195D01*
X0102654Y0262636D01*
X0103685Y0265052D01*
X0104775Y0267442D01*
X0105923Y0269804D01*
X0107129Y0272138D01*
X0108391Y0274442D01*
X0109709Y0276714D01*
X0111082Y0278953D01*
X0112510Y0281159D01*
X0113991Y0283328D01*
X0115524Y0285461D01*
X0117110Y0287555D01*
X0118746Y0289610D01*
X0120431Y0291625D01*
X0122166Y0293598D01*
X0123948Y0295527D01*
X0125777Y0297413D01*
X0127651Y0299253D01*
X0129570Y0301047D01*
X0131532Y0302794D01*
X0133537Y0304492D01*
X0135582Y0306140D01*
X0137667Y0307738D01*
X0139790Y0309285D01*
X0141950Y0310779D01*
X0144147Y0312220D01*
X0146378Y0313607D01*
X0148642Y0314939D01*
X0150938Y0316215D01*
X0153264Y0317435D01*
X0155620Y0318597D01*
X0158003Y0319701D01*
X0160413Y0320747D01*
X0162847Y0321734D01*
X0165305Y0322661D01*
X0167785Y0323527D01*
X0170285Y0324333D01*
X0172805Y0325077D01*
X0175341Y0325759D01*
X0177894Y0326380D01*
X0180461Y0326937D01*
X0183041Y0327432D01*
X0185632Y0327863D01*
X0188233Y0328231D01*
X0190842Y0328536D01*
X0193458Y0328776D01*
X0196078Y0328953D01*
X0196078Y0332889D02*
X0193358Y0332711D01*
X0190642Y0332467D01*
X0187934Y0332156D01*
X0185234Y0331779D01*
X0182543Y0331336D01*
X0179865Y0330828D01*
X0177200Y0330253D01*
X0174549Y0329614D01*
X0171915Y0328910D01*
X0169299Y0328142D01*
X0166703Y0327310D01*
X0164128Y0326415D01*
X0161575Y0325457D01*
X0159047Y0324437D01*
X0156544Y0323355D01*
X0154069Y0322212D01*
X0151622Y0321009D01*
X0149205Y0319747D01*
X0146821Y0318426D01*
X0144469Y0317046D01*
X0142151Y0315610D01*
X0139870Y0314117D01*
X0137626Y0312569D01*
X0135420Y0310967D01*
X0133254Y0309310D01*
X0131129Y0307602D01*
X0129047Y0305842D01*
X0127009Y0304031D01*
X0125015Y0302171D01*
X0123068Y0300263D01*
X0121168Y0298308D01*
X0119316Y0296307D01*
X0117514Y0294261D01*
X0115762Y0292172D01*
X0114062Y0290040D01*
X0112415Y0287868D01*
X0110822Y0285655D01*
X0109283Y0283405D01*
X0107799Y0281117D01*
X0106372Y0278794D01*
X0105003Y0276436D01*
X0103691Y0274046D01*
X0102439Y0271625D01*
X0101246Y0269173D01*
X0100113Y0266693D01*
X0099042Y0264186D01*
X0098032Y0261653D01*
X0097084Y0259097D01*
X0096199Y0256518D01*
X0095378Y0253918D01*
X0094621Y0251299D01*
X0093928Y0248662D01*
X0093299Y0246009D01*
X0092736Y0243342D01*
X0092238Y0240661D01*
X0091806Y0237969D01*
X0091440Y0235267D01*
X0091141Y0232558D01*
X0090907Y0229841D01*
X0090740Y0227120D01*
X0090640Y0224395D01*
X0090607Y0221669D01*
X0090640Y0218943D01*
X0090740Y0216218D01*
X0090907Y0213497D01*
X0091141Y0210780D01*
X0091440Y0208071D01*
X0091806Y0205369D01*
X0092238Y0202677D01*
X0092736Y0199996D01*
X0093299Y0197329D01*
X0093928Y0194676D01*
X0094621Y0192039D01*
X0095378Y0189420D01*
X0096199Y0186820D01*
X0097084Y0184241D01*
X0098032Y0181685D01*
X0099042Y0179152D01*
X0100113Y0176645D01*
X0101246Y0174165D01*
X0102439Y0171713D01*
X0103691Y0169292D01*
X0105003Y0166902D01*
X0106372Y0164544D01*
X0107799Y0162221D01*
X0109283Y0159933D01*
X0110822Y0157683D01*
X0112415Y0155470D01*
X0114062Y0153298D01*
X0115762Y0151166D01*
X0117514Y0149077D01*
X0119316Y0147031D01*
X0121168Y0145030D01*
X0123068Y0143075D01*
X0125015Y0141167D01*
X0127009Y0139307D01*
X0129047Y0137496D01*
X0131129Y0135736D01*
X0133254Y0134028D01*
X0135420Y0132371D01*
X0137626Y0130769D01*
X0139870Y0129221D01*
X0142151Y0127728D01*
X0144469Y0126292D01*
X0146821Y0124912D01*
X0149205Y0123591D01*
X0151622Y0122329D01*
X0154069Y0121126D01*
X0156544Y0119983D01*
X0159047Y0118901D01*
X0161575Y0117881D01*
X0164128Y0116923D01*
X0166703Y0116028D01*
X0169299Y0115196D01*
X0171915Y0114428D01*
X0174549Y0113724D01*
X0177200Y0113085D01*
X0179865Y0112510D01*
X0182543Y0112002D01*
X0185234Y0111559D01*
X0187934Y0111182D01*
X0190642Y0110871D01*
X0193358Y0110627D01*
X0196078Y0110449D01*
X0196079Y0202968D02*
X0195625Y0203117D01*
X0195176Y0203278D01*
X0194731Y0203449D01*
X0194290Y0203630D01*
X0193853Y0203823D01*
X0193422Y0204026D01*
X0192995Y0204239D01*
X0192574Y0204463D01*
X0192158Y0204697D01*
X0191748Y0204941D01*
X0191344Y0205195D01*
X0190947Y0205459D01*
X0190556Y0205732D01*
X0190171Y0206015D01*
X0189794Y0206307D01*
X0189424Y0206608D01*
X0189062Y0206918D01*
X0188707Y0207236D01*
X0188359Y0207564D01*
X0188020Y0207899D01*
X0187690Y0208243D01*
X0187367Y0208595D01*
X0187054Y0208954D01*
X0186749Y0209321D01*
X0186453Y0209695D01*
X0186166Y0210076D01*
X0185889Y0210465D01*
X0185621Y0210859D01*
X0185363Y0211261D01*
X0185115Y0211668D01*
X0184877Y0212081D01*
X0184648Y0212500D01*
X0184431Y0212924D01*
X0184223Y0213354D01*
X0184026Y0213788D01*
X0183840Y0214228D01*
X0183664Y0214671D01*
X0183499Y0215119D01*
X0183345Y0215570D01*
X0183203Y0216025D01*
X0183071Y0216484D01*
X0182950Y0216945D01*
X0182841Y0217410D01*
X0182743Y0217877D01*
X0182657Y0218346D01*
X0182582Y0218817D01*
X0182518Y0219290D01*
X0182466Y0219764D01*
X0182425Y0220239D01*
X0182396Y0220715D01*
X0182379Y0221192D01*
X0182373Y0221669D01*
X0182379Y0222146D01*
X0182396Y0222623D01*
X0182425Y0223099D01*
X0182466Y0223574D01*
X0182518Y0224048D01*
X0182582Y0224521D01*
X0182657Y0224992D01*
X0182743Y0225461D01*
X0182841Y0225928D01*
X0182950Y0226393D01*
X0183071Y0226854D01*
X0183203Y0227313D01*
X0183345Y0227768D01*
X0183499Y0228219D01*
X0183664Y0228667D01*
X0183840Y0229110D01*
X0184026Y0229550D01*
X0184223Y0229984D01*
X0184431Y0230414D01*
X0184648Y0230838D01*
X0184877Y0231257D01*
X0185115Y0231670D01*
X0185363Y0232077D01*
X0185621Y0232479D01*
X0185889Y0232873D01*
X0186166Y0233262D01*
X0186453Y0233643D01*
X0186749Y0234017D01*
X0187054Y0234384D01*
X0187367Y0234743D01*
X0187690Y0235095D01*
X0188020Y0235439D01*
X0188359Y0235774D01*
X0188707Y0236102D01*
X0189062Y0236420D01*
X0189424Y0236730D01*
X0189794Y0237031D01*
X0190171Y0237323D01*
X0190556Y0237606D01*
X0190947Y0237879D01*
X0191344Y0238143D01*
X0191748Y0238397D01*
X0192158Y0238641D01*
X0192574Y0238875D01*
X0192995Y0239099D01*
X0193422Y0239312D01*
X0193853Y0239515D01*
X0194290Y0239708D01*
X0194731Y0239889D01*
X0195176Y0240060D01*
X0195625Y0240221D01*
X0196079Y0240370D01*
X0196079Y0244306D02*
X0195529Y0244156D01*
X0194983Y0243992D01*
X0194441Y0243815D01*
X0193904Y0243624D01*
X0193372Y0243421D01*
X0192844Y0243205D01*
X0192322Y0242976D01*
X0191806Y0242734D01*
X0191296Y0242480D01*
X0190792Y0242213D01*
X0190295Y0241935D01*
X0189805Y0241644D01*
X0189322Y0241341D01*
X0188846Y0241027D01*
X0188379Y0240701D01*
X0187919Y0240364D01*
X0187468Y0240016D01*
X0187025Y0239657D01*
X0186591Y0239287D01*
X0186167Y0238907D01*
X0185752Y0238516D01*
X0185346Y0238116D01*
X0184950Y0237706D01*
X0184565Y0237286D01*
X0184189Y0236857D01*
X0183825Y0236419D01*
X0183471Y0235972D01*
X0183128Y0235517D01*
X0182796Y0235054D01*
X0182476Y0234582D01*
X0182167Y0234103D01*
X0181870Y0233617D01*
X0181585Y0233123D01*
X0181312Y0232623D01*
X0181051Y0232116D01*
X0180803Y0231603D01*
X0180567Y0231084D01*
X0180344Y0230559D01*
X0180134Y0230030D01*
X0179937Y0229495D01*
X0179753Y0228955D01*
X0179582Y0228412D01*
X0179424Y0227864D01*
X0179280Y0227313D01*
X0179149Y0226758D01*
X0179032Y0226200D01*
X0178928Y0225640D01*
X0178839Y0225077D01*
X0178762Y0224512D01*
X0178700Y0223945D01*
X0178651Y0223377D01*
X0178617Y0222809D01*
X0178596Y0222239D01*
X0178589Y0221669D01*
X0178596Y0221099D01*
X0178617Y0220529D01*
X0178651Y0219961D01*
X0178700Y0219393D01*
X0178762Y0218826D01*
X0178839Y0218261D01*
X0178928Y0217698D01*
X0179032Y0217138D01*
X0179149Y0216580D01*
X0179280Y0216025D01*
X0179424Y0215474D01*
X0179582Y0214926D01*
X0179753Y0214383D01*
X0179937Y0213843D01*
X0180134Y0213308D01*
X0180344Y0212779D01*
X0180567Y0212254D01*
X0180803Y0211735D01*
X0181051Y0211222D01*
X0181312Y0210715D01*
X0181585Y0210215D01*
X0181870Y0209721D01*
X0182167Y0209235D01*
X0182476Y0208756D01*
X0182796Y0208284D01*
X0183128Y0207821D01*
X0183471Y0207366D01*
X0183825Y0206919D01*
X0184189Y0206481D01*
X0184565Y0206052D01*
X0184950Y0205632D01*
X0185346Y0205222D01*
X0185752Y0204822D01*
X0186167Y0204431D01*
X0186591Y0204051D01*
X0187025Y0203681D01*
X0187468Y0203322D01*
X0187919Y0202974D01*
X0188379Y0202637D01*
X0188846Y0202311D01*
X0189322Y0201997D01*
X0189805Y0201694D01*
X0190295Y0201403D01*
X0190792Y0201125D01*
X0191296Y0200858D01*
X0191806Y0200604D01*
X0192322Y0200362D01*
X0192844Y0200133D01*
X0193372Y0199917D01*
X0193904Y0199714D01*
X0194441Y0199523D01*
X0194983Y0199346D01*
X0195529Y0199182D01*
X0196079Y0199032D01*
X0196078Y0143913D02*
X0194175Y0144081D01*
X0192276Y0144296D01*
X0190383Y0144557D01*
X0188496Y0144864D01*
X0186618Y0145218D01*
X0184749Y0145617D01*
X0182891Y0146063D01*
X0181044Y0146553D01*
X0179209Y0147089D01*
X0177389Y0147669D01*
X0175583Y0148294D01*
X0173792Y0148963D01*
X0172019Y0149676D01*
X0170264Y0150432D01*
X0168528Y0151231D01*
X0166812Y0152072D01*
X0165117Y0152954D01*
X0163444Y0153879D01*
X0161794Y0154843D01*
X0160169Y0155848D01*
X0158568Y0156893D01*
X0156994Y0157976D01*
X0155447Y0159098D01*
X0153927Y0160257D01*
X0152437Y0161453D01*
X0150976Y0162685D01*
X0149546Y0163953D01*
X0148147Y0165255D01*
X0146781Y0166592D01*
X0145448Y0167961D01*
X0144149Y0169363D01*
X0142884Y0170796D01*
X0141655Y0172259D01*
X0140463Y0173752D01*
X0139307Y0175274D01*
X0138189Y0176824D01*
X0137109Y0178401D01*
X0136068Y0180004D01*
X0135067Y0181632D01*
X0134106Y0183284D01*
X0133186Y0184958D01*
X0132307Y0186655D01*
X0131470Y0188373D01*
X0130675Y0190111D01*
X0129923Y0191868D01*
X0129214Y0193643D01*
X0128549Y0195435D01*
X0127928Y0197242D01*
X0127352Y0199064D01*
X0126821Y0200900D01*
X0126334Y0202748D01*
X0125893Y0204608D01*
X0125498Y0206478D01*
X0125149Y0208357D01*
X0124846Y0210243D01*
X0124589Y0212137D01*
X0124378Y0214037D01*
X0124215Y0215941D01*
X0124098Y0217848D01*
X0124027Y0219758D01*
X0124004Y0221669D01*
X0124027Y0223580D01*
X0124098Y0225490D01*
X0124215Y0227397D01*
X0124378Y0229301D01*
X0124589Y0231201D01*
X0124846Y0233095D01*
X0125149Y0234981D01*
X0125498Y0236860D01*
X0125893Y0238730D01*
X0126334Y0240590D01*
X0126821Y0242438D01*
X0127352Y0244274D01*
X0127928Y0246096D01*
X0128549Y0247903D01*
X0129214Y0249695D01*
X0129923Y0251470D01*
X0130675Y0253227D01*
X0131470Y0254965D01*
X0132307Y0256683D01*
X0133186Y0258380D01*
X0134106Y0260054D01*
X0135067Y0261706D01*
X0136068Y0263334D01*
X0137109Y0264937D01*
X0138189Y0266514D01*
X0139307Y0268064D01*
X0140463Y0269586D01*
X0141655Y0271079D01*
X0142884Y0272542D01*
X0144149Y0273975D01*
X0145448Y0275377D01*
X0146781Y0276746D01*
X0148147Y0278083D01*
X0149546Y0279385D01*
X0150976Y0280653D01*
X0152437Y0281885D01*
X0153927Y0283081D01*
X0155447Y0284240D01*
X0156994Y0285362D01*
X0158568Y0286445D01*
X0160169Y0287490D01*
X0161794Y0288495D01*
X0163444Y0289459D01*
X0165117Y0290384D01*
X0166812Y0291266D01*
X0168528Y0292107D01*
X0170264Y0292906D01*
X0172019Y0293662D01*
X0173792Y0294375D01*
X0175583Y0295044D01*
X0177389Y0295669D01*
X0179209Y0296249D01*
X0181044Y0296785D01*
X0182891Y0297275D01*
X0184749Y0297721D01*
X0186618Y0298120D01*
X0188496Y0298474D01*
X0190383Y0298781D01*
X0192276Y0299042D01*
X0194175Y0299257D01*
X0196078Y0299425D01*
X0196078Y0303362D02*
X0194090Y0303194D01*
X0192106Y0302977D01*
X0190128Y0302712D01*
X0188156Y0302399D01*
X0186193Y0302038D01*
X0184240Y0301630D01*
X0182297Y0301174D01*
X0180365Y0300670D01*
X0178447Y0300120D01*
X0176542Y0299523D01*
X0174653Y0298880D01*
X0172780Y0298192D01*
X0170924Y0297457D01*
X0169087Y0296678D01*
X0167269Y0295854D01*
X0165471Y0294986D01*
X0163696Y0294075D01*
X0161943Y0293120D01*
X0160214Y0292124D01*
X0158510Y0291085D01*
X0156831Y0290005D01*
X0155180Y0288885D01*
X0153556Y0287724D01*
X0151961Y0286525D01*
X0150395Y0285287D01*
X0148860Y0284011D01*
X0147357Y0282698D01*
X0145886Y0281349D01*
X0144449Y0279964D01*
X0143046Y0278545D01*
X0141677Y0277092D01*
X0140345Y0275606D01*
X0139049Y0274088D01*
X0137790Y0272539D01*
X0136570Y0270960D01*
X0135388Y0269351D01*
X0134246Y0267715D01*
X0133145Y0266051D01*
X0132084Y0264360D01*
X0131064Y0262644D01*
X0130087Y0260904D01*
X0129152Y0259141D01*
X0128261Y0257355D01*
X0127413Y0255548D01*
X0126610Y0253721D01*
X0125851Y0251875D01*
X0125138Y0250011D01*
X0124470Y0248130D01*
X0123848Y0246234D01*
X0123273Y0244322D01*
X0122744Y0242398D01*
X0122263Y0240461D01*
X0121829Y0238513D01*
X0121442Y0236555D01*
X0121103Y0234588D01*
X0120813Y0232614D01*
X0120570Y0230632D01*
X0120376Y0228646D01*
X0120230Y0226656D01*
X0120133Y0224662D01*
X0120084Y0222667D01*
X0120084Y0220671D01*
X0120133Y0218676D01*
X0120230Y0216682D01*
X0120376Y0214692D01*
X0120570Y0212706D01*
X0120813Y0210724D01*
X0121103Y0208750D01*
X0121442Y0206783D01*
X0121829Y0204825D01*
X0122263Y0202877D01*
X0122744Y0200940D01*
X0123273Y0199016D01*
X0123848Y0197104D01*
X0124470Y0195208D01*
X0125138Y0193327D01*
X0125851Y0191463D01*
X0126610Y0189617D01*
X0127413Y0187790D01*
X0128261Y0185983D01*
X0129152Y0184197D01*
X0130087Y0182434D01*
X0131064Y0180694D01*
X0132084Y0178978D01*
X0133145Y0177287D01*
X0134246Y0175623D01*
X0135388Y0173987D01*
X0136570Y0172378D01*
X0137790Y0170799D01*
X0139049Y0169250D01*
X0140345Y0167732D01*
X0141677Y0166246D01*
X0143046Y0164793D01*
X0144449Y0163374D01*
X0145886Y0161989D01*
X0147357Y0160640D01*
X0148860Y0159327D01*
X0150395Y0158051D01*
X0151961Y0156813D01*
X0153556Y0155614D01*
X0155180Y0154453D01*
X0156831Y0153333D01*
X0158510Y0152253D01*
X0160214Y0151214D01*
X0161943Y0150218D01*
X0163696Y0149263D01*
X0165471Y0148352D01*
X0167269Y0147484D01*
X0169087Y0146660D01*
X0170924Y0145881D01*
X0172780Y0145146D01*
X0174653Y0144458D01*
X0176542Y0143815D01*
X0178447Y0143218D01*
X0180365Y0142668D01*
X0182297Y0142164D01*
X0184240Y0141708D01*
X0186193Y0141300D01*
X0188156Y0140939D01*
X0190128Y0140626D01*
X0192106Y0140361D01*
X0194090Y0140144D01*
X0196078Y0139976D01*
X0196078Y0168519D02*
X0194776Y0168680D01*
X0193478Y0168873D01*
X0192185Y0169097D01*
X0190898Y0169354D01*
X0189618Y0169641D01*
X0188345Y0169961D01*
X0187080Y0170311D01*
X0185824Y0170692D01*
X0184578Y0171104D01*
X0183343Y0171546D01*
X0182119Y0172019D01*
X0180906Y0172521D01*
X0179707Y0173053D01*
X0178520Y0173614D01*
X0177348Y0174205D01*
X0176191Y0174823D01*
X0175049Y0175470D01*
X0173924Y0176145D01*
X0172815Y0176847D01*
X0171724Y0177577D01*
X0170651Y0178332D01*
X0169597Y0179114D01*
X0168563Y0179922D01*
X0167549Y0180754D01*
X0166555Y0181612D01*
X0165583Y0182493D01*
X0164633Y0183398D01*
X0163705Y0184326D01*
X0162800Y0185277D01*
X0161919Y0186249D01*
X0161062Y0187243D01*
X0160229Y0188257D01*
X0159422Y0189292D01*
X0158640Y0190346D01*
X0157885Y0191419D01*
X0157156Y0192510D01*
X0156454Y0193619D01*
X0155779Y0194745D01*
X0155133Y0195887D01*
X0154514Y0197044D01*
X0153924Y0198216D01*
X0153363Y0199403D01*
X0152831Y0200602D01*
X0152329Y0201815D01*
X0151857Y0203039D01*
X0151415Y0204275D01*
X0151003Y0205521D01*
X0150622Y0206777D01*
X0150272Y0208041D01*
X0149954Y0209314D01*
X0149666Y0210595D01*
X0149410Y0211882D01*
X0149186Y0213175D01*
X0148993Y0214473D01*
X0148833Y0215775D01*
X0148704Y0217081D01*
X0148608Y0218390D01*
X0148543Y0219701D01*
X0148511Y0221013D01*
X0148511Y0222325D01*
X0148543Y0223637D01*
X0148608Y0224948D01*
X0148704Y0226257D01*
X0148833Y0227563D01*
X0148993Y0228865D01*
X0149186Y0230163D01*
X0149410Y0231456D01*
X0149666Y0232743D01*
X0149954Y0234024D01*
X0150272Y0235297D01*
X0150622Y0236561D01*
X0151003Y0237817D01*
X0151415Y0239063D01*
X0151857Y0240299D01*
X0152329Y0241523D01*
X0152831Y0242736D01*
X0153363Y0243935D01*
X0153924Y0245122D01*
X0154514Y0246294D01*
X0155133Y0247451D01*
X0155779Y0248593D01*
X0156454Y0249719D01*
X0157156Y0250828D01*
X0157885Y0251919D01*
X0158640Y0252992D01*
X0159422Y0254046D01*
X0160229Y0255081D01*
X0161062Y0256095D01*
X0161919Y0257089D01*
X0162800Y0258061D01*
X0163705Y0259012D01*
X0164633Y0259940D01*
X0165583Y0260845D01*
X0166555Y0261726D01*
X0167549Y0262584D01*
X0168563Y0263416D01*
X0169597Y0264224D01*
X0170651Y0265006D01*
X0171724Y0265761D01*
X0172815Y0266491D01*
X0173924Y0267193D01*
X0175049Y0267868D01*
X0176191Y0268515D01*
X0177348Y0269133D01*
X0178520Y0269724D01*
X0179707Y0270285D01*
X0180906Y0270817D01*
X0182119Y0271319D01*
X0183343Y0271792D01*
X0184578Y0272234D01*
X0185824Y0272646D01*
X0187080Y0273027D01*
X0188345Y0273377D01*
X0189618Y0273697D01*
X0190898Y0273984D01*
X0192185Y0274241D01*
X0193478Y0274465D01*
X0194776Y0274658D01*
X0196078Y0274819D01*
X0196078Y0270882D02*
X0194880Y0270723D01*
X0193686Y0270535D01*
X0192496Y0270318D01*
X0191312Y0270073D01*
X0190135Y0269798D01*
X0188965Y0269495D01*
X0187802Y0269163D01*
X0186648Y0268803D01*
X0185503Y0268415D01*
X0184368Y0267999D01*
X0183243Y0267555D01*
X0182129Y0267085D01*
X0181027Y0266587D01*
X0179938Y0266062D01*
X0178862Y0265511D01*
X0177799Y0264934D01*
X0176751Y0264332D01*
X0175718Y0263704D01*
X0174701Y0263050D01*
X0173700Y0262373D01*
X0172715Y0261671D01*
X0171748Y0260945D01*
X0170799Y0260196D01*
X0169869Y0259424D01*
X0168958Y0258629D01*
X0168066Y0257813D01*
X0167195Y0256975D01*
X0166344Y0256116D01*
X0165514Y0255236D01*
X0164706Y0254337D01*
X0163921Y0253418D01*
X0163158Y0252480D01*
X0162418Y0251524D01*
X0161701Y0250550D01*
X0161009Y0249559D01*
X0160341Y0248551D01*
X0159698Y0247527D01*
X0159080Y0246488D01*
X0158487Y0245434D01*
X0157920Y0244366D01*
X0157380Y0243285D01*
X0156866Y0242191D01*
X0156379Y0241084D01*
X0155919Y0239966D01*
X0155486Y0238837D01*
X0155081Y0237698D01*
X0154704Y0236549D01*
X0154355Y0235391D01*
X0154035Y0234226D01*
X0153743Y0233052D01*
X0153480Y0231872D01*
X0153245Y0230686D01*
X0153040Y0229495D01*
X0152863Y0228299D01*
X0152716Y0227099D01*
X0152599Y0225896D01*
X0152510Y0224690D01*
X0152451Y0223482D01*
X0152422Y0222274D01*
X0152422Y0221064D01*
X0152451Y0219856D01*
X0152510Y0218648D01*
X0152599Y0217442D01*
X0152716Y0216239D01*
X0152863Y0215039D01*
X0153040Y0213843D01*
X0153245Y0212652D01*
X0153480Y0211466D01*
X0153743Y0210286D01*
X0154035Y0209112D01*
X0154355Y0207947D01*
X0154704Y0206789D01*
X0155081Y0205640D01*
X0155486Y0204501D01*
X0155919Y0203372D01*
X0156379Y0202254D01*
X0156866Y0201147D01*
X0157380Y0200053D01*
X0157920Y0198972D01*
X0158487Y0197904D01*
X0159080Y0196850D01*
X0159698Y0195811D01*
X0160341Y0194787D01*
X0161009Y0193779D01*
X0161701Y0192788D01*
X0162418Y0191814D01*
X0163158Y0190858D01*
X0163921Y0189920D01*
X0164706Y0189001D01*
X0165514Y0188102D01*
X0166344Y0187222D01*
X0167195Y0186363D01*
X0168066Y0185525D01*
X0168958Y0184709D01*
X0169869Y0183914D01*
X0170799Y0183142D01*
X0171748Y0182393D01*
X0172715Y0181667D01*
X0173700Y0180965D01*
X0174701Y0180288D01*
X0175718Y0179634D01*
X0176751Y0179006D01*
X0177799Y0178404D01*
X0178862Y0177827D01*
X0179938Y0177276D01*
X0181027Y0176751D01*
X0182129Y0176253D01*
X0183243Y0175783D01*
X0184368Y0175339D01*
X0185503Y0174923D01*
X0186648Y0174535D01*
X0187802Y0174175D01*
X0188965Y0173843D01*
X0190135Y0173540D01*
X0191312Y0173265D01*
X0192496Y0173020D01*
X0193686Y0172803D01*
X0194880Y0172615D01*
X0196078Y0172456D01*
D11*
X0075992Y0088803D03*
X0096858Y0109669D03*
X0117921Y0130535D03*
X0138591Y0151401D03*
X0159654Y0172268D03*
X0166551Y0216669D03*
X0137024Y0216669D03*
X0107496Y0216669D03*
X0077969Y0216669D03*
X0048441Y0216669D03*
X0018913Y0216669D03*
X0110850Y0305929D03*
X0131716Y0285063D03*
X0152386Y0264197D03*
X0196984Y0257102D03*
X0196984Y0286630D03*
X0196984Y0316157D03*
X0196984Y0345685D03*
X0196984Y0375213D03*
X0196984Y0404740D03*
X0286047Y0313000D03*
X0265181Y0292134D03*
X0244315Y0271268D03*
X0237417Y0226669D03*
X0266945Y0226669D03*
X0296472Y0226669D03*
X0326000Y0226669D03*
X0355528Y0226669D03*
X0385055Y0226669D03*
X0293315Y0137606D03*
X0313984Y0116740D03*
X0335047Y0095874D03*
X0272252Y0158473D03*
X0251386Y0179339D03*
X0206984Y0186236D03*
X0206984Y0156709D03*
X0206984Y0127181D03*
X0206984Y0097654D03*
X0206984Y0068126D03*
X0206984Y0038598D03*
X0196984Y0221669D03*
X0089787Y0326795D03*
X0068921Y0347661D03*
X0307110Y0333866D03*
X0327976Y0354732D03*
D12*
X0206984Y0345685D03*
X0206984Y0316157D03*
X0206984Y0286630D03*
X0206984Y0257102D03*
X0206984Y0221669D03*
X0237417Y0216669D03*
X0266945Y0216669D03*
X0296472Y0216669D03*
X0326000Y0216669D03*
X0355528Y0216669D03*
X0385055Y0216669D03*
X0206984Y0375213D03*
X0206984Y0404740D03*
X0166551Y0226669D03*
X0137024Y0226669D03*
X0107496Y0226669D03*
X0077969Y0226669D03*
X0048441Y0226669D03*
X0018913Y0226669D03*
X0196984Y0186236D03*
X0196984Y0156709D03*
X0196984Y0127181D03*
X0196984Y0097654D03*
X0196984Y0068126D03*
X0196984Y0038598D03*
D13*
G36*
X0282320Y0130535D02*
X0286244Y0134459D01*
X0290168Y0130535D01*
X0286244Y0126611D01*
X0282320Y0130535D01*
G37*
G36*
X0261257Y0151401D02*
X0265181Y0155325D01*
X0269105Y0151401D01*
X0265181Y0147477D01*
X0261257Y0151401D01*
G37*
G36*
X0240391Y0172268D02*
X0244315Y0176192D01*
X0248239Y0172268D01*
X0244315Y0168344D01*
X0240391Y0172268D01*
G37*
G36*
X0302989Y0109669D02*
X0306913Y0113593D01*
X0310837Y0109669D01*
X0306913Y0105745D01*
X0302989Y0109669D01*
G37*
G36*
X0324052Y0088803D02*
X0327976Y0092727D01*
X0331900Y0088803D01*
X0327976Y0084879D01*
X0324052Y0088803D01*
G37*
G36*
X0362210Y0099946D02*
X0366134Y0103870D01*
X0370058Y0099946D01*
X0366134Y0096022D01*
X0362210Y0099946D01*
G37*
G36*
X0251386Y0260273D02*
X0247462Y0264197D01*
X0251386Y0268121D01*
X0255310Y0264197D01*
X0251386Y0260273D01*
G37*
G36*
X0272252Y0281139D02*
X0268328Y0285063D01*
X0272252Y0288987D01*
X0276176Y0285063D01*
X0272252Y0281139D01*
G37*
G36*
X0293118Y0302005D02*
X0289194Y0305929D01*
X0293118Y0309853D01*
X0297042Y0305929D01*
X0293118Y0302005D01*
G37*
G36*
X0314181Y0322871D02*
X0310257Y0326795D01*
X0314181Y0330719D01*
X0318105Y0326795D01*
X0314181Y0322871D01*
G37*
G36*
X0335047Y0343737D02*
X0331123Y0347661D01*
X0335047Y0351585D01*
X0338971Y0347661D01*
X0335047Y0343737D01*
G37*
G36*
X0163381Y0271268D02*
X0159457Y0267344D01*
X0155533Y0271268D01*
X0159457Y0275192D01*
X0163381Y0271268D01*
G37*
G36*
X0142712Y0292134D02*
X0138788Y0288210D01*
X0134864Y0292134D01*
X0138788Y0296058D01*
X0142712Y0292134D01*
G37*
G36*
X0121845Y0313000D02*
X0117921Y0309076D01*
X0113997Y0313000D01*
X0117921Y0316924D01*
X0121845Y0313000D01*
G37*
G36*
X0100782Y0333866D02*
X0096858Y0329942D01*
X0092934Y0333866D01*
X0096858Y0337790D01*
X0100782Y0333866D01*
G37*
G36*
X0079916Y0354732D02*
X0075992Y0350808D01*
X0072068Y0354732D01*
X0075992Y0358656D01*
X0079916Y0354732D01*
G37*
G36*
X0152583Y0183263D02*
X0156507Y0179339D01*
X0152583Y0175415D01*
X0148659Y0179339D01*
X0152583Y0183263D01*
G37*
G36*
X0131520Y0162397D02*
X0135444Y0158473D01*
X0131520Y0154549D01*
X0127596Y0158473D01*
X0131520Y0162397D01*
G37*
G36*
X0110850Y0141530D02*
X0114774Y0137606D01*
X0110850Y0133682D01*
X0106926Y0137606D01*
X0110850Y0141530D01*
G37*
G36*
X0089787Y0120664D02*
X0093711Y0116740D01*
X0089787Y0112816D01*
X0085863Y0116740D01*
X0089787Y0120664D01*
G37*
G36*
X0068921Y0099798D02*
X0072845Y0095874D01*
X0068921Y0091950D01*
X0064997Y0095874D01*
X0068921Y0099798D01*
G37*
D14*
X0358197Y0031309D02*
X0359087Y0032199D01*
X0359087Y0029249D01*
X0357003Y0027165D01*
X0354053Y0027165D01*
X0351969Y0029249D01*
X0351969Y0032199D01*
X0354053Y0034283D01*
X0357003Y0034283D01*
X0359087Y0032199D01*
X0357752Y0031646D01*
X0357752Y0029802D01*
X0356450Y0028500D01*
X0354606Y0028500D01*
X0353304Y0029802D01*
X0353304Y0031646D01*
X0354606Y0032948D01*
X0356450Y0032948D01*
X0357752Y0031646D01*
X0356417Y0031093D01*
X0356417Y0030355D01*
X0355897Y0029835D01*
X0355159Y0029835D01*
X0354639Y0030355D01*
X0354639Y0031093D01*
X0355159Y0031613D01*
X0355897Y0031613D01*
X0356417Y0031093D01*
X0395598Y0068711D02*
X0396488Y0069601D01*
X0396488Y0066651D01*
X0394404Y0064567D01*
X0391454Y0064567D01*
X0389370Y0066651D01*
X0389370Y0069601D01*
X0391454Y0071685D01*
X0394404Y0071685D01*
X0396488Y0069601D01*
X0395153Y0069048D01*
X0395153Y0067204D01*
X0393851Y0065902D01*
X0392007Y0065902D01*
X0390705Y0067204D01*
X0390705Y0069048D01*
X0392007Y0070350D01*
X0393851Y0070350D01*
X0395153Y0069048D01*
X0393818Y0068495D01*
X0393818Y0067757D01*
X0393298Y0067237D01*
X0392560Y0067237D01*
X0392040Y0067757D01*
X0392040Y0068495D01*
X0392560Y0069015D01*
X0393298Y0069015D01*
X0393818Y0068495D01*
D15*
X0387347Y0078733D03*
X0380276Y0071662D03*
X0373205Y0064590D03*
X0366134Y0057519D03*
X0359063Y0050448D03*
X0351992Y0043377D03*
X0344921Y0036306D03*
X0323708Y0057519D03*
X0330779Y0064590D03*
X0337850Y0071662D03*
X0344921Y0078733D03*
X0351992Y0085804D03*
X0359063Y0092875D03*
D16*
X0388943Y0058234D02*
X0383514Y0052806D01*
X0370848Y0040139D02*
X0365419Y0034711D01*
D17*
X0341295Y0053873D03*
X0348366Y0060945D03*
X0355437Y0068016D03*
X0362508Y0075087D03*
X0369579Y0082158D03*
M02*
