%
M48
M72
T01C0.01200
T02C0.03150
T03C0.04000
T04C0.05118
%
T01
X87417Y74819
X106315Y98441
X101591Y144110
X149622Y188205
X166945Y170488
X188598Y161433
X215370Y161433
X222457Y96472
X181906Y66157
X178362Y37024
X262614Y116157
X277181Y90961
X304346Y66157
X307299Y68126
X312220Y72063
X309268Y76984
X314189Y82890
X320094Y83874
X322063Y76000
X318323Y73638
X324622Y69307
X321472Y66354
X317732Y63402
X314386Y60252
X328756Y74228
X331906Y77969
X359071Y133874
X348047Y106709
X324819Y125213
X333087Y147654
X307496Y162220
X281118Y176394
X254740Y189780
X235449Y169701
X256709Y148441
X248047Y142142
X287417Y62220
X385843Y200803
X357102Y203165
X292142Y237024
X262220Y235055
X259071Y258283
X217732Y287417
X187024Y287811
X81906Y205921
X52378Y203559
X17339Y200803
X17339Y243717
X56315Y335843
X87417Y368126
X111827Y383480
X125213Y357496
X107102Y339386
X127181Y318126
X138598Y330724
X154346Y305134
X167732Y280331
X150016Y255134
X141748Y235449
X180724Y401197
X184268Y370882
X220882Y376000
X243323Y372457
X251591Y400016
X224031Y405921
X237024Y342929
X228362Y314583
X298835Y344504
X320488Y364189
X343323Y334268
X320882Y314189
T02
X206984Y156709
X196984Y156709
X206984Y127181
X196984Y127181
X206984Y97654
X196984Y97654
X206984Y68126
X196984Y68126
X206984Y38598
X196984Y38598
X143323Y79937
X131906Y52378
X154346Y107102
X165764Y134268
X177181Y161827
X159654Y172268
X152583Y179339
X142142Y196866
X137024Y216669
X137024Y226669
X142142Y246472
X152386Y264197
X159457Y271268
X177181Y281512
X196984Y286630
X206984Y286630
X206984Y257102
X215370Y254346
X201984Y233480
X196984Y257102
X169307Y235055
X166551Y226669
X166551Y216669
X196984Y221669
X196984Y375213
X206984Y375213
X196984Y404740
X206984Y404740
X260646Y363402
X249622Y336236
X238205Y309071
X265181Y292134
X272252Y285063
X293118Y305929
X286047Y313000
X307110Y333866
X314181Y326795
X335047Y347661
X327976Y354732
X272063Y390961
X196984Y345685
X206984Y345685
X206984Y316157
X196984Y316157
X226787Y281512
X244315Y271268
X251386Y264197
X261827Y246472
X266945Y226669
X266945Y216669
X261827Y196866
X251386Y179339
X244315Y172268
X226787Y161827
X206984Y186236
X196984Y186236
X188598Y188992
X201984Y210252
X206984Y221669
X154346Y336236
X143323Y363402
X131906Y390961
X75992Y354732
X68921Y347661
X89787Y326795
X96858Y333866
X117921Y313000
X110850Y305929
X131716Y285063
X138788Y292134
X165764Y309071
X114583Y257890
X87417Y269307
X60252Y280331
X32693Y291748
X18913Y226669
X18913Y216669
X48441Y216669
X48441Y226669
X77969Y226669
X77969Y216669
X107496Y216669
X107496Y226669
X114583Y185449
X131520Y158473
X138591Y151401
X117921Y130535
X110850Y137606
X89787Y116740
X96858Y109669
X75992Y88803
X68921Y95874
X32693Y151591
X60252Y163008
X87417Y174031
X289386Y257890
X316551Y269307
X343717Y280331
X371276Y291748
X385055Y226669
X385055Y216669
X355528Y216669
X355528Y226669
X326000Y226669
X326000Y216669
X296472Y216669
X296472Y226669
X289386Y185449
X316551Y174031
X343717Y163008
X371276Y151591
X369579Y82158
X362508Y75087
X355437Y68016
X387347Y78733
X366134Y99946
X359063Y92875
X351992Y85804
X344921Y78733
X337850Y71662
X330779Y64590
X323708Y57519
X341295Y53873
X348366Y60945
X359063Y50448
X351992Y43377
X344921Y36306
X272063Y52378
X260646Y79937
X249622Y107102
X238205Y134268
X265181Y151401
X272252Y158473
X293315Y137606
X286244Y130535
X306913Y109669
X313984Y116740
X335047Y95874
X327976Y88803
X366134Y57519
X373205Y64590
X380276Y71662
X234661Y208283
X237417Y216669
X237417Y226669
T03
X355528Y30724
X392929Y68126
T04
X386229Y55520
X368133Y37425
M30
